<?xml version="1.0" encoding="UTF-8"?>
<!DOCTYPE svg PUBLIC "-//W3C//DTD SVG 1.0//EN" "http://www.w3.org/TR/2001/REC-SVG-20010904/DTD/svg10.dtd">
<!-- Creator: CorelDRAW 2020 (64-Bit) -->
<svg xmlns="http://www.w3.org/2000/svg" xml:space="preserve" width="700px" height="400px" version="1.0" style="shape-rendering:geometricPrecision; text-rendering:geometricPrecision; image-rendering:optimizeQuality; fill-rule:evenodd; clip-rule:evenodd"
viewBox="0 0 7000000 4000000"
 xmlns:xlink="http://www.w3.org/1999/xlink"
 xmlns:xodm="http://www.corel.com/coreldraw/odm/2003">
 <defs>
  <style type="text/css">
   <![CDATA[
    .fil0 {fill:white}
   ]]>
  </style>
 </defs>
 <g id="Layer_x0020_1">
  <metadata id="CorelCorpID_0Corel-Layer"/>
  <path class="fil0" d="M1603730 1041300l413240 1188510 -826490 0 413250 -1188510zm-160520 -307380l-877720 2390680 314200 0 221990 -642070 1004090 0 221990 642070 321030 0 -877720 -2390680 -327860 0zm2339450 2178940c-355190,0 -601090,-273220 -601090,-642070 0,-368850 245900,-642070 601090,-642070 355180,0 601080,273220 601080,642070 0,368850 -245900,642070 -601080,642070zm37560 259560c488390,0 843570,-385930 843570,-901630 0,-515700 -355180,-901630 -843570,-901630 -290290,0 -508870,136610 -638650,351770l0 -1062140 -273220 0 0 2465810 273220 0 0 -303960c129780,215170 348360,351780 638650,351780zm1950110 0c334700,0 597670,-157100 737700,-443990l-228820 -136610c-109290,211750 -290300,321040 -515710,321040 -351770,0 -594250,-273220 -594250,-642070 0,-368850 242480,-642070 594250,-642070 225410,0 406420,109290 515710,321030l228820 -136610c-140030,-286880 -403000,-443980 -737700,-443980 -522530,0 -881130,382510 -881130,901630 0,519120 358600,901630 881130,901630z"/>
 </g>
</svg>
