<svg xmlns="http://www.w3.org/2000/svg" xml:space="preserve" width="700" height="400" version="1.0" style="shape-rendering:geometricPrecision;text-rendering:geometricPrecision;image-rendering:optimizeQuality;fill-rule:evenodd;clip-rule:evenodd" viewBox="0 0 7000000 4000000">
  <path d="m1603730 1041300 413240 1188510h-826490l413250-1188510zm-160520-307380L565490 3124600h314200l221990-642070h1004090l221990 642070h321030L1771070 733920h-327860zm2339450 2178940c-355190 0-601090-273220-601090-642070s245900-642070 601090-642070c355180 0 601080 273220 601080 642070s-245900 642070-601080 642070zm37560 259560c488390 0 843570-385930 843570-901630s-355180-901630-843570-901630c-290290 0-508870 136610-638650 351770V658790h-273220v2465810h273220v-303960c129780 215170 348360 351780 638650 351780zm1950110 0c334700 0 597670-157100 737700-443990l-228820-136610c-109290 211750-290300 321040-515710 321040-351770 0-594250-273220-594250-642070s242480-642070 594250-642070c225410 0 406420 109290 515710 321030l228820-136610c-140030-286880-403000-443980-737700-443980-522530 0-881130 382510-881130 901630s358600 901630 881130 901630z" style="fill:#fff"/>
</svg>
