<svg xmlns="http://www.w3.org/2000/svg" xml:space="preserve" width="700" height="400" version="1.0" style="shape-rendering:geometricPrecision;text-rendering:geometricPrecision;image-rendering:optimizeQuality;fill-rule:evenodd;clip-rule:evenodd" viewBox="0 0 7000000 4000000">
  <path d="m1584780 1041300 413240 1188510h-826490l413250-1188510zm-160520-307380L546540 3124600h314200l221990-642070h1004090l221990 642070h321030L1752120 733920h-327860zm2325790 2185770c-327870 0-566940-245900-566940-601090s239070-601080 566940-601080c321030 0 560100 245890 560100 601080s-239070 601090-560100 601090zm0 252730c491790 0 833320-355190 833320-857230 0-488390-324450-843570-795750-843570-286890 0-519120 133190-655730 385920 23900-546440 245890-778680 768430-816240l522530-37570-10240-256150-529370 40990c-741110 58060-993840 484960-993840 1284130 0 683060 327870 1099720 860650 1099720zm1509540-816250h532780c157100 0 280050 92210 280050 259560 0 170760-122950 269800-280050 269800h-532780v-529360zm0-700130h505460c150270 0 242480 95630 242480 228820 0 136610-92210 232240-242480 232240h-505460v-461060zm560100 1468560c303960 0 519120-198080 519120-471300 0-211750-129780-375680-338110-430330 167350-51220 273220-194660 273220-372260 0-252730-208330-433740-484960-433740h-788930v1707630h819660z" style="fill:#fff"/>
</svg>
