<?xml version="1.0" encoding="UTF-8"?>
<!DOCTYPE svg PUBLIC "-//W3C//DTD SVG 1.0//EN" "http://www.w3.org/TR/2001/REC-SVG-20010904/DTD/svg10.dtd">
<!-- Creator: CorelDRAW 2020 (64-Bit) -->
<svg xmlns="http://www.w3.org/2000/svg" xml:space="preserve" width="700px" height="400px" version="1.0" style="shape-rendering:geometricPrecision; text-rendering:geometricPrecision; image-rendering:optimizeQuality; fill-rule:evenodd; clip-rule:evenodd"
viewBox="0 0 7000000 4000000"
 xmlns:xlink="http://www.w3.org/1999/xlink"
 xmlns:xodm="http://www.corel.com/coreldraw/odm/2003">
 <defs>
  <style type="text/css">
   <![CDATA[
    .fil0 {fill:white}
   ]]>
  </style>
 </defs>
 <g id="Layer_x0020_1">
  <metadata id="CorelCorpID_0Corel-Layer"/>
  <path class="fil0" d="M1584780 1041300l413240 1188510 -826490 0 413250 -1188510zm-160520 -307380l-877720 2390680 314200 0 221990 -642070 1004090 0 221990 642070 321030 0 -877720 -2390680 -327860 0zm2325790 2185770c-327870,0 -566940,-245900 -566940,-601090 0,-355190 239070,-601080 566940,-601080 321030,0 560100,245890 560100,601080 0,355190 -239070,601090 -560100,601090zm0 252730c491790,0 833320,-355190 833320,-857230 0,-488390 -324450,-843570 -795750,-843570 -286890,0 -519120,133190 -655730,385920 23900,-546440 245890,-778680 768430,-816240l522530 -37570 -10240 -256150 -529370 40990c-741110,58060 -993840,484960 -993840,1284130 0,683060 327870,1099720 860650,1099720zm1509540 -816250l532780 0c157100,0 280050,92210 280050,259560 0,170760 -122950,269800 -280050,269800l-532780 0 0 -529360zm0 -700130l505460 0c150270,0 242480,95630 242480,228820 0,136610 -92210,232240 -242480,232240l-505460 0 0 -461060zm560100 1468560c303960,0 519120,-198080 519120,-471300 0,-211750 -129780,-375680 -338110,-430330 167350,-51220 273220,-194660 273220,-372260 0,-252730 -208330,-433740 -484960,-433740l-788930 0 0 1707630 819660 0z"/>
 </g>
</svg>
