<svg xmlns="http://www.w3.org/2000/svg" xml:space="preserve" width="650" height="110" version="1.0" style="shape-rendering:geometricPrecision;text-rendering:geometricPrecision;image-rendering:optimizeQuality;fill-rule:evenodd;clip-rule:evenodd" viewBox="0 0 6500000 1100000">
  <defs>
    <style>
      .fil0{fill:#fff;fill-rule:nonzero}
    </style>
  </defs>
  <g id="Layer_x0020_1">
    <g id="_2161521119664">
      <path class="fil0" d="M0 849610h159540V170060h419540v679550h159550V22330H0zM910000 258700v827270h147720V783430h13000c41370 53180 104000 79180 187910 79180 174910 0 288360-121730 288360-308460s-113450-308450-288360-308450c-82720 0-147730 29540-197360 96900h-11820l-27180-83900H910000zm147720 295450c0-100450 69730-178450 170180-178450 102820 0 169010 78000 169010 178450 0 100460-66190 178460-169010 178460-100450 0-170180-78000-170180-178460zM1786910 554150c0-100450 68540-178450 168990-178450 100460 0 169000 78000 169000 178450 0 100460-68540 178460-169000 178460-100450 0-168990-78000-168990-178460zm-150100 0c0 186730 130000 308460 319090 308460 191460 0 319100-124090 319100-308460 0-186730-130000-308450-319100-308450-189090 0-319090 121720-319090 308450zM2475900 258700l-25990 276540c-9460 96910-21280 184370-74460 184370h-41360v277730h135910V849610h443180v147730h135910V719610h-96910V258700h-476280zm62640 460910c22460-23640 37820-80370 46090-169000l15370-161910h204450v330910h-265910zM3066820 258700l243450 580270-15370 41370c-29540 80360-83900 75630-124090 75630h-76810v130000h76810c112280 0 186730 7090 250550-146550l280090-680720h-159540l-150100 400630h-11820l-153630-400630h-159540zM3778270 258700v590910h520000v147730h135910V719610h-100460V258700h-147720v460910h-260000V258700zM4493270 554150c0 185550 132360 309640 321460 309640 151270 0 245810-61450 284810-184370h-153630c-22460 41370-66190 62640-132370 62640-118180 0-174910-86270-174910-189090 0-100460 62640-184360 169000-184360 76820 0 139460 43720 157180 119360h-335630l-3550 113450h488090c2370-16540 3550-33080 3550-50810 0-184370-132360-304910-309640-304910-177270 0-314360 122910-314360 308450zM5241360 258700v590910h147730V601420h277730v248190h147720V258700h-147720v212720h-277730V258700zM5915000 258700v130000h218640v460910h147720V388700h218640V258700z"/>
    </g>
  </g>
</svg>
