<svg xmlns="http://www.w3.org/2000/svg" xml:space="preserve" width="650" height="250" version="1.0" style="shape-rendering:geometricPrecision;text-rendering:geometricPrecision;image-rendering:optimizeQuality;fill-rule:evenodd;clip-rule:evenodd" viewBox="0 0 6500000 2500000">
  <defs>
    <style>
      .fil0{fill:#fff;fill-rule:nonzero}
    </style>
  </defs>
  <g id="Layer_x0020_1">
    <g id="_2161522864400">
      <path class="fil0" d="M1361790 7940H0v1969530h799060c436110 0 706220-230710 706220-599300 0-368580-270110-596490-706220-596490H174440V176760h1187350V7940zM799060 947690c326380 0 523340 146310 523340 427670 0 284170-196960 433290-523340 433290H174440V947690h624620zM1921700 570660v1406810h244790l821580-1209850h25320v1209850h166000V570660h-244780l-821580 1209860h-28140V570660zM3702720 570660v1406810h163200v-666830h905980v666830h166010V570660h-166010v590860h-905980V570660zM5278880 570660v151940h526160v1254870h165990V722600h528970V570660z"/>
    </g>
  </g>
</svg>
