<svg xmlns="http://www.w3.org/2000/svg" xml:space="preserve" width="650" height="208" version="1.0" style="shape-rendering:geometricPrecision;text-rendering:geometricPrecision;image-rendering:optimizeQuality;fill-rule:evenodd;clip-rule:evenodd" viewBox="0 0 6500000 2080000">
  <defs>
    <style>
      .fil0{fill:#fff;fill-rule:nonzero}
    </style>
  </defs>
  <g id="Layer_x0020_1">
    <g id="_2161517656784">
      <path class="fil0" d="M1615950 756670H870130v259900h463320c-74590 255400-244090 384220-504000 384220-305120 0-519820-228270-519820-551460s214700-551460 519820-551460c189840 0 327710 67800 429410 228270h336750C1471310 189380 1215920 17620 829450 17620 343530 17620 0 363410 0 849330s343530 831710 829450 831710c235050 0 415850-79100 540160-237310l61020 196630h185320V756670zM1909770 510320v1130040h282510v-558240c0-198890 110740-323200 293810-323200h293810V510320h-248610c-164980 0-259910 38420-343530 164980h-22610l-51970-164980h-203410zM2915510 510320v621520c0 395510 305110 533380 553720 533380 248600 0 553720-137870 553720-533380V510320h-282510v576320c0 248610-124310 329970-271210 329970-146910 0-271210-81360-271210-329970V510320h-282510zM4248960 510320v1130040h282500v-569540c0-212450 117530-341270 289300-341270 153680 0 253130 101700 253130 275720v635090h282510V964590c0-309620-176290-479130-440720-479130-153690 0-296070 56500-384220 201140h-22590l-56510-176280h-203400zM5469400 758920h226010v510780c0 246360 122050 370660 384210 370660h420380v-248610h-363870c-115260 0-158210-40680-158210-176290V758920h522080V510320h-522080V193910h-282510v316410h-226010v248600z"/>
    </g>
  </g>
</svg>
