<svg xmlns="http://www.w3.org/2000/svg" xml:space="preserve" width="650" height="162" version="1.0" style="shape-rendering:geometricPrecision;text-rendering:geometricPrecision;image-rendering:optimizeQuality;fill-rule:evenodd;clip-rule:evenodd" viewBox="0 0 6500000 1620000">
  <defs>
    <style>
      .fil0{fill:#fff;fill-rule:nonzero}
    </style>
  </defs>
  <g id="Layer_x0020_1">
    <g id="_2161516775648">
      <path class="fil0" d="M470880 1266930c366250 0 629600-244160 629600-610410 0-366240-263350-610410-629600-610410H0v1220820h470880zm0-218000H235440V264120h235440c235450 0 390670 151730 390670 392400 0 240680-155220 392410-390670 392410zM1228720 830930c0 273810 195330 456930 474380 456930 223230 0 362750-90690 420310-272070h-226720c-33140 61040-97670 92440-195340 92440-174400 0-258110-127320-258110-279050 0-148240 92430-272070 249390-272070 113360 0 205800 64530 231960 176150h-495310l-5230 167420h720280c3500-24410 5240-48830 5240-74990 0-272060-195330-449950-456940-449950-261600 0-463910 181370-463910 455190zM2201890 394920l343580 872010h256370l343570-872010h-235440l-224980 606920h-17440l-224990-606920zM3299700 394920v872010h218010V394920h-218010zm-20930-261610c0 76740 52320 129060 129060 129060s129060-52320 129060-129060c0-76730-52320-129050-129060-129050s-129060 52320-129060 129050zM4614700 1277390v-186610h-36630c-43600 0-64530-27900-64530-85460V717560c0-211020-149980-341820-385420-341820-214520 0-369740 94170-397640 292990h214510c20930-81970 85460-118600 174410-118600 106380 0 176140 61050 176140 172660v184870c0 118590-80220 204050-212770 204050-90690 0-153470-36620-153470-109870 0-69760 57550-102900 143010-102900h327870V745470h-348800c-228470 0-348800 115100-348800 272070 0 158700 123820 268580 319150 268580 120340 0 223240-43610 287760-155220h12210l5240 15690c29650 87210 95920 130800 209280 130800h78480zM4762940 394920v872010h218010V827430c0-163930 90690-263340 223230-263340 118600 0 195330 78480 195330 212770v490070h218000V745470c0-238930-136030-369730-340080-369730-118590 0-228470 43590-296480 155210h-17450l-43590-136030h-156970zM5704720 586760h174400v394150c0 190100 94180 286020 296490 286020h324390v-191840h-280790c-88950 0-122080-31400-122080-136040V586760h402870V394920h-402870V150760h-218010v244160h-174400v191840z"/>
    </g>
  </g>
</svg>
