<svg xmlns="http://www.w3.org/2000/svg" xml:space="preserve" width="570" height="130" version="1.0" style="shape-rendering:geometricPrecision;text-rendering:geometricPrecision;image-rendering:optimizeQuality;fill-rule:evenodd;clip-rule:evenodd" viewBox="0 0 5700000 1300000">
  <defs>
    <style>
      .fil0{fill:#fff;fill-rule:nonzero;fill-opacity:0.2;}
    </style>
  </defs>
  <g id="Layer_x0020_1">
    <path class="fil0" d="M13200 584620h496080l41780-485640h17410l41770 485640h503920l87900-609220H932260l-45260 485640h-17400L827820-24600H309110l-33070 485640h-17410L213380-24600H-73830z"/>
    <path id="1" class="fil0" d="M1568900 602030c201050 0 328980-90520 354220-249790l-192340-30460-870-16530 197560-34820c-7830-210610-150560-312440-362050-312440-228020 0-361180 119230-361180 322020 0 202780 133160 322020 364660 322020zm870-429940c53960 0 104440 22630 118360 68750l-9570 8710h-208870l-11320-6970c6090-46120 55700-70490 111400-70490zm2610 216710c-53960 0-104440-22630-118360-69630l9570-8700h208880l11310 6960c-6090 47000-55700 71370-111400 71370z"/>
    <path id="2" class="fil0" d="M2614590 602030c217580 0 349000-105310 363800-260230l-243690-34810c-13060 27850-55710 53960-114020 53960-64400 0-110530-32200-110530-80940s46130-80940 110530-80940c58310 0 100960 26110 114020 53960l243690-34820c-14800-154910-146220-260220-363800-260220-230630 0-366400 119230-366400 322020 0 202780 135770 322020 366400 322020z"/>
    <path id="3" class="fil0" d="M3237310 597670c163620 0 235850-93990 248040-221930h17400v208880h261100V279140c0-201920-138380-321150-375980-321150-220190 0-335070 101830-375980 243690l212360 32200-2610 16540c-137510 0-223670 65270-223670 167100 0 107050 94860 180150 239340 180150zm128800-425580c49610 0 96610 22630 108790 68750l-9570 8710h-191470l-11310-6970c6090-46120 52220-70490 103560-70490zm-3480 210620c-49600 0-91380-20890-104440-63540l9580-8700h192340l10440 6960c-6960 42650-56570 65280-107920 65280z"/>
    <path id="4" class="fil0" d="M5415290 602030c201040 0 328980-90520 354220-249790l-192340-30460-870-16530 197560-34820c-7840-210610-150570-312440-362060-312440-228020 0-361180 119230-361180 322020 0 202780 133160 322020 364670 322020zm870-429940c53960 0 104440 22630 118360 68750l-9570 8710h-208880l-11320-6970c6100-46120 55700-70490 111410-70490zm2610 216710c-53960 0-104440-22630-118370-69630l9580-8700h208870l11320 6960c-6090 47000-55700 71370-111400 71370z"/>
    <path id="5" class="fil0" d="M3812590 584620h261100V359210c0-101830 31330-153180 114010-153180s114010 51350 114010 153180v225410h243690V359210c0-101830 30460-153180 109660-153180s109660 51350 109660 153180v225410h261100V252160c0-184510-91380-294170-240210-294170-58310 0-113140 16540-164490 36550l-58310 209750h-17410c-13920-155790-95730-246300-231510-246300-58310 0-113140 16540-164490 36550l-58310 209750h-17400V-24600h-261100v609220z"/>
    <path id="6" class="fil0" d="M1061500 1270000h133160v-226290h-114010c-55700 0-94860-28720-94860-67880s39160-80070 144470-80070h115750V660770H624600v234990h159270c73110 0 115750 7830 115750 40030 0 64410-172320 23500-172320 167110 0 119230 119230 167100 334200 167100z"/>
    <path id="7" class="fil0" d="M1642880 1287410c228020 0 357700-119240 357700-322020 0-202790-129680-322020-357700-322020-228900 0-365540 119230-365540 322020 0 202780 136640 322020 365540 322020zm0-241080c-71370 0-120980-32210-120980-80940 0-48740 49610-80940 120980-80940 70490 0 113140 32200 113140 80940 0 48730-42650 80940-113140 80940z"/>
    <path id="8" class="fil0" d="M3937480 1287410c228020 0 357700-119240 357700-322020 0-202790-129680-322020-357700-322020-228900 0-365530 119230-365530 322020 0 202780 136630 322020 365530 322020zm0-241080c-71370 0-120980-32210-120980-80940 0-48740 49610-80940 120980-80940 70500 0 113140 32200 113140 80940 0 48730-42640 80940-113140 80940z"/>
    <path id="9" class="fil0" d="M4429210 1270000h488250l146220-609230h-303750l-73970 511750h-17410l-73980-511750h-312440z"/>
    <path id="10" class="fil0" d="M5415290 1287410c201040 0 328980-90520 354220-249790l-192340-30460-870-16540 197560-34810c-7840-210620-150570-312440-362060-312440-228020 0-361180 119230-361180 322020 0 202780 133160 322020 364670 322020zm870-429940c53960 0 104440 22630 118360 68750l-9570 8700h-208880l-11320-6960c6100-46120 55700-70490 111410-70490zm2610 216710c-53960 0-104440-22630-118370-69630l9580-8700h208870l11320 6960c-6090 47000-55700 71370-111400 71370z"/>
    <path id="11" class="fil0" d="M2345230 1270000h261090v-227160c0-108790 40040-151430 144480-151430 64400 0 100950 16540 100950 46130 0 65270-172320 40030-172320 181020 0 96610 80940 160140 219320 160140 147080 0 212360-72230 212360-232370 0-115760 33940-154920 134900-154920 65270 0 93120 16540 93120 43510 0 67890-172320 42650-172320 186250 0 100960 84420 148830 299390 148830h72240v-226290h-53090c-58310 0-94870-20010-94870-52220 0-67010 156660-30460 156660-168840 0-103570-87900-179280-214100-179280-330720 0-183640 392510-367280 392510-37420 0-62660-16540-62660-40900 0-61800 156660-33950 156660-175810 0-100960-80070-175800-208010-175800-49600 0-103560 11310-168840 36550l-59180 209750h-17410V660770h-261090v609230z"/>
  </g>
</svg>
