<?xml version="1.0" encoding="utf-8"?>
<!-- Generator: Adobe Illustrator 18.0.0, SVG Export Plug-In . SVG Version: 6.00 Build 0)  -->
<!DOCTYPE svg PUBLIC "-//W3C//DTD SVG 1.1//EN" "http://www.w3.org/Graphics/SVG/1.1/DTD/svg11.dtd">
<svg version="1.1" id="Layer_1" xmlns="http://www.w3.org/2000/svg" xmlns:xlink="http://www.w3.org/1999/xlink" x="0px" y="0px"
	 viewBox="0 0 122.9 122.9" enable-background="new 0 0 122.9 122.9" xml:space="preserve">
<path fill-rule="evenodd" clip-rule="evenodd" fill="#FFFFFF" d="M0,122.9V0h122.9v122.9H0z M77.8,88.3h3.7v-2.9h1.4l1.6,2.9h3.9
	l-2.2-3.7c1.1-0.7,1.8-1.9,1.8-3.6c0-2.6-1.7-4-4.7-4h-5.4V88.3z M56.6,88.3h9.6v-2.8h-5.9v-1.4h4.5v-2.8h-4.5v-1.4h5.8V77h-9.5
	V88.3z M40.7,58.8c0.4,0,0.9,0.1,1.5,0.4v1.7h3.2v-3.7c-1.3-0.8-3.3-1.4-5-1.4c-3.6,0-6.1,2.4-6.1,5.8c0,3.3,2.7,5.7,6.4,5.7
	c1.8,0,3.7-0.7,4.9-1.7l-2.1-2.6c-0.8,0.7-1.9,1.2-2.8,1.2c-1.5,0-2.5-1.1-2.5-2.6C38.2,59.9,39.2,58.8,40.7,58.8z M34.3,80h3.2v8.3
	h3.7V80h3.2V77H34.3V80z M42.7,34.6h-3.8l-4.7,11.2H38l0.6-1.6h4.2l0.6,1.6h4L42.7,34.6z M66.2,43h-5.9v-1.4h4.5v-2.8h-4.5v-1.4h5.8
	v-2.8h-9.5v11.3h9.6V43z M63.6,55.9h-3.8L55,67.2h3.8l0.6-1.6h4.2l0.6,1.6h4L63.6,55.9z M88.1,34.6h-3.4v5.8l-4.4-5.8h-3.1v11.2h3.4
	v-5.7l4.4,5.7h3.1V34.6z M83.5,55.7c-2.9,0-4.8,1.4-4.8,3.7c0,3.9,5.8,3,5.8,4.4c0,0.4-0.3,0.6-0.9,0.6c-1.1,0-3.1-0.8-4.2-1.7
	L78,65.4c1.5,1.1,3.6,1.8,5.6,1.8c2.5,0,4.7-1.1,4.7-3.6c0-4.1-5.8-3.2-5.8-4.6c0-0.3,0.3-0.5,0.7-0.5c1,0,2.7,0.7,3.8,1.3l1.3-2.8
	C87.1,56.2,85.2,55.7,83.5,55.7z M61.5,59.6l1.2,3.3h-2.4L61.5,59.6z M40.7,38.3l1.2,3.3h-2.3L40.7,38.3z M84.4,81.2
	c0,0.9-0.5,1.4-1.3,1.4h-1.7v-2.7h1.7C83.9,79.9,84.4,80.4,84.4,81.2z"/>
</svg>
