<svg xmlns="http://www.w3.org/2000/svg" xml:space="preserve" width="650" height="256" version="1.0" style="shape-rendering:geometricPrecision;text-rendering:geometricPrecision;image-rendering:optimizeQuality;fill-rule:evenodd;clip-rule:evenodd" viewBox="0 0 6500000 2560000">
  <defs>
    <style>
      .fil0{fill:#fff;fill-rule:nonzero}
    </style>
  </defs>
  <g id="Layer_x0020_1">
    <path class="fil0" d="M0 2016530h566800v-664520h516530c443950 0 686860-214980 686860-619850 0-402060-242910-614260-684060-614260H0v1898630zM566800 972280V514380h374140c173110 0 256870 80980 256870 231750 0 147980-80970 226150-256870 226150H566800zm675690 1044250h594710l-457910-753870H804120l438370 753870zM2461720 2058420c273620 0 457900-111690 538880-346220l-58640-19560v72600c0 181490 83760 262460 290370 262460h228960v-335060h-39090c-41880 0-58630-19530-58630-64210v-522120c0-365760-206610-550040-661730-550040-441150 0-670110 173110-706400 485830h438350c19550-108910 92150-167530 242930-167530 175890 0 245700 80960 245700 251290v284790c0 206620-100520 329470-312720 329470-145190 0-206610-58640-206610-156360 0-106100 69790-156360 248490-175910l569590-53040v-248500l-600300 55840c-485820 41890-672900 175910-672900 455120s187080 441150 513750 441150zM3671150 2016530h471870v-781790c0-184280 106100-295960 282000-295960 173110 0 248500 106100 248500 312710v765040h471860v-829250c0-388100-181480-628230-552840-628230-251290 0-427180 108900-524910 301550l61430 58640V598140h-457910v1418390zM6097940 2016530h402060v-346220h-287580c-106100 0-161940-44670-161940-161940V229590h-469070v1334620c0 315510 156360 452320 516530 452320zM5307780 977870h1181050V598140H5307780v379730z"/>
  </g>
</svg>
