<svg xmlns="http://www.w3.org/2000/svg" xml:space="preserve" width="650" height="124" version="1.0" style="shape-rendering:geometricPrecision;text-rendering:geometricPrecision;image-rendering:optimizeQuality;fill-rule:evenodd;clip-rule:evenodd" viewBox="0 0 6500000 1242960">
  <defs>
    <style>
      .fil0{fill:#fff;fill-rule:nonzero}
    </style>
  </defs>
  <g id="Layer_x0020_1">
    <g id="_2161515198496">
      <path class="fil0" d="M422390 992760c242140 0 386070-92820 386070-281140 0-156050-99550-246180-316120-275780l-111650-16140c-92820-13450-177570-33620-177570-119720 0-86090 84750-121070 185640-121070 117030 0 185640 47080 197750 149320h199080C766760 133180 636270 30940 392800 30940c-239450 0-379350 99550-379350 277120 0 170830 129140 239440 318810 266340l110310 16140c92820 13460 177560 30940 177560 119730 0 92820-91470 129130-197740 129130-134520 0-208510-57840-223300-157380H0c14790 199090 157380 310740 422390 310740zM1577920 290560h-166810v382040c0 110310-60530 173530-164110 173530-98200 0-142600-57840-142600-178910V290560H936260v404910c0 182950 90120 291910 259620 291910 121070 0 204470-55150 243480-152010l-25560-21520v154700h164120V290560zM1750100 968550h164110V817880l1350-22860V0h-165460v968550zm406250 18830c201780 0 301320-141250 301320-357830 0-216570-99540-359160-301320-359160-203120 0-298640 142590-298640 357820 0 217920 96860 359170 298640 359170zm-51120-142600c-125100 0-189670-78020-189670-216570 0-137210 64570-213890 189670-213890 123760 0 184300 76680 184300 213890 0 138550-60540 216570-184300 216570zM2488620 1242960h92810c130490 0 181610-51110 181610-162760V290560h-166810v753320c0 39010-16140 60530-59190 60530h-48420v138550zm191010-1057320c65920 0 106270-33630 106270-92820 0-57850-40350-91470-106270-91470-65910 0-106270 33620-106270 91470 0 59190 40360 92820 106270 92820zM3142390 987380c125090 0 212530-51120 250200-160080h-24210v37670c0 73980 33630 107610 119720 107610h79370V844780h-20180c-20180 0-28250-8070-28250-28240V525980c0-165470-92820-255590-290560-255590-181610 0-286540 76670-304020 216570h162770c10760-60530 53810-91470 133180-91470 98190 0 138550 47080 138550 138560v139900c0 119720-55150 189670-174880 189670-82050 0-118370-33630-118370-91480 0-61870 40350-91470 139890-102230l256940-26900V538080l-267700 28250c-205810 20180-293250 84750-293250 215230 0 130490 87440 205820 240800 205820zM4015420 987380c200430 0 316120-96860 333610-267690h-170840c-14800 82050-71300 125090-164120 125090-123750 0-191010-75330-191010-215230s67260-215230 193700-215230c90130 0 146630 39020 158740 115690h170830c-17480-166810-130480-259620-328230-259620-235400 0-363200 133170-363200 359160 0 226000 127800 357830 360520 357830zM4801020 987380c184290 0 294590-82060 324190-227340h-161430c-22860 61880-80710 91470-165450 91470-134520 0-201790-75330-201790-225990 0-149320 67270-224650 199090-224650 114350 0 178920 57850 178920 170840l14790-17490h-427770v100900h571710v-55160c0-209850-114350-329570-333610-329570-230030 0-359170 131830-359170 359160 0 223310 125110 357830 360520 357830zM5263760 968550h166800V586510c0-110310 60540-173530 164120-173530 98200 0 142590 57840 142590 178910v376660h168150V563640c0-182940-90120-291910-259620-291910-121060 0-204470 55160-243480 152010l25550 21520V290560h-164110v677990zM6343960 968550h156040V835370h-121070c-57840 0-88780-24210-88780-92820V107610h-166800v655120c0 141240 69950 205820 220610 205820zm-348410-536740h499070V290560h-499070v141250z"/>
    </g>
  </g>
</svg>
