<svg xmlns="http://www.w3.org/2000/svg" xml:space="preserve" width="650" height="125" version="1.0" style="shape-rendering:geometricPrecision;text-rendering:geometricPrecision;image-rendering:optimizeQuality;fill-rule:evenodd;clip-rule:evenodd" viewBox="0 0 6500000 1250000">
  <defs>
    <style>
      .fil0{fill:#fff;fill-rule:nonzero}
    </style>
  </defs>
  <g id="Layer_x0020_1">
    <g id="_2161500326080">
      <path class="fil0" d="M174900 61580h699600v929150H698230V213250H342960v307440c0 364830-73780 472780-292410 472780H0V837700h23220c121620 0 151680-64220 151680-377130V61580zM1278960 1009860c124340 0 211790-50550 250050-161230l-23230 4100v38260c0 71050 31420 103850 116140 103850h68320V877330h-19130c-20490 0-28690-9570-28690-28700V539820c0-163970-92910-255520-285580-255520-174900 0-278750 75150-296510 213160h147570c10930-62850 57390-97020 142110-97020 103850 0 147570 51930 147570 147580v142100c0 128450-57390 203600-185830 203600-87450 0-128440-35520-128440-98380 0-65590 45080-97020 151660-109310l254160-28700v-99740l-266450 27330c-198130 20490-285580 86080-285580 217250s88820 207690 241860 207690zM2158920 1009860c219990 0 347070-120240 347070-349800 0-213160-110680-340230-315640-340230-142110 0-241850 60120-289680 177630l23230-6830c2730-211790 68320-291040 273280-300610l102480-5470c133910-5460 165340-34150 165340-165330h-129810c0 25960-5470 32800-43730 35530l-95650 4090c-284210 15040-392150 153040-392150 506940v30070c0 278740 121600 414010 355260 414010zm0-125710c-131170 0-203590-77880-203590-221350 0-140740 69690-219990 203590-219990 133910 0 199500 77880 199500 218620 0 143470-68320 222720-199500 222720zM2654930 990730h155770l345700-515130-9570-2730v517860h146210V303430h-154400l-345700 515140 9560 2730V303430h-147570zM3875130 1009860c204970 0 307440-143460 307440-363460 0-218630-102470-362100-306070-362100-204970 0-304710 143470-304710 363470 0 218630 98380 362090 303340 362090zm-42360-131170c-132540 0-202230-81990-202230-230920 0-148940 69690-232290 202230-232290s199500 83350 199500 232290c0 148930-66960 230920-199500 230920zm-352530 374390h150300V467410l-2730-19140V303430h-147570v949650zM4331510 990730h155770l345700-515130-9560-2730v517860h146200V303430h-154400l-345700 515140 9570 2730V303430h-147580zM5156820 990730h150310V694230h322470v296500h150310V303430h-150310v260990h-322470V303430h-150310zM6122870 990730h150310V433240h226820V303430h-605310v129810h228180z"/>
    </g>
  </g>
</svg>
