<svg xmlns="http://www.w3.org/2000/svg" xml:space="preserve" width="650" height="165" version="1.0" style="shape-rendering:geometricPrecision;text-rendering:geometricPrecision;image-rendering:optimizeQuality;fill-rule:evenodd;clip-rule:evenodd" viewBox="0 0 6500000 1650000">
  <defs>
    <style>
      .fil0{fill:#fff;fill-rule:nonzero}
    </style>
  </defs>
  <g id="Layer_x0020_1">
    <g id="_2161502923408">
      <path class="fil0" d="M736180 1315580h495580v-206490l-14360-28730V257990l14360-28730V37130H736180v192130l14370 28730v822370l-14370 28730v206490zm-3590-111330h66450V863090h-48490c-156210 0-237020-64640-237020-197510s80810-197510 237020-197510h48490V126910h-66450C238810 126910 0 301080 0 663790c0 364500 240600 540460 732590 540460zm502770 0c491990 0 732590-175960 732590-540460 0-362710-238800-536880-732590-536880h-66440v341160h48480c156220 0 237020 64640 237020 197510s-80800 197510-237020 197510h-48480v341160h66440zM2759810 1313790c280110 0 411180-192130 411180-488400s-131070-488400-405800-488400c-276520 0-395020 192130-395020 493780 0 290890 109530 483020 389640 483020zm-150830-328600c-100550 0-149040-57460-149040-159800 0-102350 48490-159810 149040-159810s149030 57460 149030 159810c0 102340-48480 159800-149030 159800zm-554840 660780h405800V644030l-10770-44880V363920h-395030v1282050zM3567820 1313790c188530 0 308840-75410 362710-229830l-44900-32330v41300c0 141850 66440 201100 222660 201100h202900v-274720h-25140c-26940 0-35910-12570-35910-44890V708670c0-253170-147240-371680-475830-371680-337570 0-499170 123900-518920 344750h368090c10770-57450 43090-89770 125690-89770 89780 0 120310 37700 120310 131070v177770c0 96960-52080 158010-158010 158010-71830 0-95170-26940-95170-71830 0-50270 28730-73620 120310-80800l398610-32320V685340l-421960 34110c-364500 28730-490190 116710-490190 303460 0 186740 123890 290880 344750 290880zM4379420 1286850h409400V974420h240600v312430h409400V363920h-409400v290890h-240600V363920h-409400zM5797930 1286850h411190V683540h290880V363920h-992950v319620h290880z"/>
    </g>
  </g>
</svg>
