<svg xmlns="http://www.w3.org/2000/svg" xml:space="preserve" width="650" height="130" version="1.0" style="shape-rendering:geometricPrecision;text-rendering:geometricPrecision;image-rendering:optimizeQuality;fill-rule:evenodd;clip-rule:evenodd" viewBox="0 0 6500000 1300000">
  <defs>
    <style>
      .fil0{fill:#fff;fill-rule:nonzero}
    </style>
  </defs>
  <g id="Layer_x0020_1">
    <g id="_2829849808848">
      <path class="fil0" d="M114360 897690H0v63830h711450V720830h-79790v176860H244680V480130h230060v125000h79790V291290h-79790v125010H244680V94480h386980v163570h79790V30650H0v63830h114360zM993370 296610H791240v55860h82440v553200h-82440v55850h284570v-55850h-82440V474810c99730-91760 138300-114360 190160-114360 77130 0 110370 49200 110370 160900v384320h-82450v55850h284590v-55850h-82460V486780c0-132980-66480-207450-184840-207450-71800 0-121010 27920-235370 132980V296610zM1663590 976150c0 143620 23940 206120 9310 224740-3990 5320-14630 9310-29260 9310-30580 0-81110-14630-139620-42550v128980c18610 2660 35900 3990 53190 3990 162240 0 226070-113030 226070-305850V296610h-202140v55860h82450v623680zm59840-804540c-46540 0-81110-29250-81110-81110 0-51870 34570-81120 81110-81120 46550 0 81120 29250 81120 81120 0 51860-34570 81110-81120 81110zM2072620 598480c0-182180 79790-264630 199470-264630s199470 82450 199470 264630v61170c0 182190-79790 264640-199470 264640s-199470-82450-199470-264640v-61170zm199470 384320c190160 0 332460-127660 332460-353730s-142300-353730-332460-353730-332450 127660-332450 353730 142290 353730 332450 353730zM3255820 352470h69150v-55860h-215430v55860h82450l-164900 510650-191500-510650h79790v-55860h-280590v55860h71820l263300 684850-6650 18620c-21280 66490-47880 117020-66490 127660-6650 3990-19950 6650-38570 6650-34570 0-86440-7980-150270-23940v127660c18620 4000 46550 6650 71810 6650 122340 0 184850-63830 247350-251330l228730-696820zM4185350 961520h293890v-55850h-82440V486780c0-132980-63830-207450-176870-207450-71810 0-118350 29250-235380 143620-18610-93090-78450-143620-171540-143620-69150 0-115700 27920-224740 132980V296610h-202130v55860h82450v553200h-82450v55850h293880v-55850h-91750V474810c93090-91760 128990-114360 178190-114360 73140 0 103730 49200 103730 160900v384320h-91760v55850h303200v-55850h-91760V480130c95750-95750 132980-119680 183520-119680 73130 0 103720 49200 103720 160900v384320h-91760v55850zM5182160 610450v-41220c0-178200-114370-293890-296550-293890-199470 0-324470 139630-324470 353730 0 226070 140960 353730 327130 353730 144950 0 248680-77130 291230-210110l-49210-18620c-38560 103730-109040 155590-218080 155590-143620 0-218090-89100-218090-260640v-38570h488040zm-299210-276600c110380 0 170220 71810 170220 204790v13300h-357720c10640-143620 75790-218090 187500-218090zM5474720 296610h-202130v55860h82440v553200h-82440v55850h284570v-55850h-82440V474810c99730-91760 138300-114360 190160-114360 77130 0 110370 49200 110370 160900v384320h-82450v55850h284580v-55850h-82440V486780c0-132980-66500-207450-184850-207450-71810 0-121010 27920-235370 132980V296610zM6135630 355120v430870c0 115690 46550 186170 162240 186170 85110 0 134310-37230 202130-196810l-38560-17290c-55850 122340-81120 146280-126340 146280-59840 0-79790-41220-79790-127660V355120h219420v-58510h-219420V123740h-119680v172870h-113030v58510h113030z"/>
    </g>
  </g>
</svg>
