<svg xmlns="http://www.w3.org/2000/svg" xml:space="preserve" width="650" height="260" version="1.0" style="shape-rendering:geometricPrecision;text-rendering:geometricPrecision;image-rendering:optimizeQuality;fill-rule:evenodd;clip-rule:evenodd" viewBox="0 0 6500000 2600000">
  <defs>
    <style>
      .fil0{fill:#fff;fill-rule:nonzero}
    </style>
  </defs>
  <g id="Layer_x0020_1">
    <path class="fil0" d="M230850 1806590H0v128850h724760v-128850H493900v-426800l373120-416060 493910 842860h-217420v128850h716700v-128850h-214750L1038820 770460l520750-585180h252330V56440h-695240v128840h255010l-877770 985130V185280h230860V56440H0v128840h230850z"/>
    <path class="fil0" d="M1752960 706030h144950l432170 1229410h236220l426800-1229410h139580V593290h-434850v112740h166430l-354330 1028090-351650-1028090h161060V593290h-566380zM3684180 593290h-408020v112740h166430v1116670h-166430v112740h574450v-112740h-166430V593290zm-120800-252320c93960 0 163750-59050 163750-163740s-69790-163740-163750-163740c-93950 0-163740 59050-163740 163740s69790 163740 163740 163740zM4430410 593290h-408020v112740h166440v1116670h-166440v112740h574440v-112740h-166420V952990c201320-185220 279170-230850 383850-230850 155690 0 222800 99320 222800 324800v775760h-166430v112740h574440v-112740h-166430V977150c0-268430-134210-418750-373110-418750-144950 0-244270 56370-475120 268430V593290zM5764500 711400v869710c0 233540 93950 375810 327490 375810 171790 0 271110-75160 408010-397280l-77850-34900c-112730 246960-163740 295280-255000 295280-120800 0-161060-83220-161060-257690V711400h442910V593290h-442910V244340h-241590v348950h-228160v118110h228160z"/>
  </g>
</svg>
