<svg xmlns="http://www.w3.org/2000/svg" xml:space="preserve" width="650" height="182" version="1.0" style="shape-rendering:geometricPrecision;text-rendering:geometricPrecision;image-rendering:optimizeQuality;fill-rule:evenodd;clip-rule:evenodd" viewBox="0 0 6500000 1820000">
  <defs>
    <style>
      .fil0{fill:#fff;fill-rule:nonzero}
    </style>
  </defs>
  <g id="Layer_x0020_1">
    <g id="_2161580181024">
      <path class="fil0" d="M0 1452940h454020l274530-878490h-16890l274530 878490h456140L939730 16940H502600L0 1452940zm358990-196390h650430V935560H358990v320990zM1518360 1452940h397010V692710c0-221740-86580-320990-291430-320990-65460 0-128820 10550-202730 31680v331540c16900-6330 29570-8450 40120-8450 40130 0 57030 27460 57030 82360v644090zm899600 25350c65470 0 139380-12680 204850-33790v-323100c-23230 12670-46470 16890-61240 16890-42240 0-71810-29560-71810-76030 0-63350 52800-128810 101370-211170 40120-63350 73910-105590 135150-105590 52790 0 92920 31680 92920 95030 0 111920-130930 147830-130930 314660 0 183710 156270 323100 375890 323100 65470 0 139380-12680 204840-33790v-323100c-29560 10550-59130 16890-82350 16890-50690 0-105590-31680-105590-84470 0-92920 173160-147820 173160-352670 0-192170-154160-329430-371670-329430-194280 0-325210 109810-375890 335770h38010c0-198510-133040-335770-339990-335770-228070 0-339990 166830-367450 504710h65460c12680-84470 82370-130930 145720-130930 54900 0 124590 35900 124590 111920 0 95030-109810 130940-109810 297770 0 183710 135150 323100 354770 323100zM3942660 1478290c137260 0 266080-29570 365330-86590v-312540c-88690 57020-198500 88700-314650 88700-196390 0-291420-88700-291420-270310 0-156270 71790-251300 190060-251300 105580 0 168940 76020 168940 171050l38010-31670h-576510v223840h859490c6330-44350 10560-90800 10560-137260 0-308320-190070-500490-504710-500490-337890 0-551180 223850-551180 551170 0 348440 240740 555400 606080 555400zM4548730 1452940h397020V692710c0-221740-86590-320990-291430-320990-65460 0-128810 10550-202720 31680v331540c16890-6330 29560-8450 40110-8450 40130 0 57020 27460 57020 82360v644090zm893280 25350c71800 0 145710-12680 211180-33790v-323100c-29570 10550-59130 16890-88700 16890-65460 0-99250-31680-99250-78130 0-99260 152050-154160 152050-352670s-154160-335770-371680-335770c-238620 0-350540 166830-378000 504710h65470c12670-84470 82360-130930 145710-130930 54900 0 103470 35900 103470 101370 0 105580-130930 141490-130930 308320 0 183710 156270 323100 390680 323100zM5695420 739170h794020V397060h-335770v10560c67580-19010 133050-92920 133050-211180v-52790h-354780v33790c0 160490-84470 274520-236520 318870v242860zm542730 732770c90800 0 183720-12670 261850-38010v-342100c-38010 14780-78130 23230-122480 23230-103480 0-133040-46460-133040-154160V677930h-397010v378000c0 299870 118260 416010 390680 416010z"/>
    </g>
  </g>
</svg>
