<svg xmlns="http://www.w3.org/2000/svg" xml:space="preserve" width="650" height="120" version="1.0" style="shape-rendering:geometricPrecision;text-rendering:geometricPrecision;image-rendering:optimizeQuality;fill-rule:evenodd;clip-rule:evenodd" viewBox="0 0 6500000 1200000">
  <defs>
    <style>
      .fil0{fill:#fff;fill-rule:nonzero}
    </style>
  </defs>
  <g id="Layer_x0020_1">
    <g id="_2161618524976">
      <path class="fil0" d="M447670 961250c270220 0 447680-189550 447680-475900S717890 9450 447670 9450 0 199000 0 485350s177450 475900 447670 475900zm0-224500c-120990 0-196270-96800-196270-251400 0-155940 75280-251390 196270-251390s196280 95450 196280 251390c0 154600-75290 251400-196280 251400zM1297310 958570c200310 0 341470-133100 341470-349540 0-190900-108890-291730-268870-291730-131750 0-216450 68570-250060 188210l38990 75290c20170-57810 68570-92760 126370-92760 69910 0 126370 52430 126370 137130 0 83340-53780 135780-120990 135780-72600 0-125030-60500-125030-208380v-26890l-17480-34950c1350-189560 63190-264840 164020-264840 43020 0 79320 13440 138470 13440 48390 0 86040-9410 114270-26880V14830c-36300 17470-79320 25540-129060 25540-67220 0-95450-14790-153260-14790-198960 0-330710 174770-330710 470530v8060c0 287690 122340 454400 345500 454400zM2040750 958570c80650 0 149220-20170 200300-57810V687010c-37640 48390-91410 72590-158630 72590-104860 0-165360-61840-165360-153260 0-91410 60500-153260 165360-153260 67220 0 120990 24200 158630 72600V311930c-51080-37640-119650-57810-200300-57810-211070 0-349540 141160-349540 352220 0 211070 138470 352230 349540 352230zM2556980 942440h-224510V270260h224510v672180zm446330 0h-252740l-205690-350880 178800-321300h250060l-189560 329360-1350-29580 220480 372400zM3223790 1200550c142500 0 229880-88720 229880-205690 0-68560-30920-104850-45710-150570l-181490-574030h-231230l201660 556560c16130 41670 29570 86040 29570 112930 0 37640-28230 57800-71250 57800-24200 0-52430-6720-80660-20160v196280c52430 18820 106200 26880 149230 26880zm211060-186870c36300-251390 256770-392550 256770-586140 0-110240-71250-174760-176110-174760-48400 0-95450 13440-137130 36290l-5370 186870c18820-13440 38980-22860 60500-22860 25540 0 38980 12110 38980 34960 0 60500-90070 130400-123680 259460l86040 266180zM4203830 958570c145190 0 267520-112930 267520-353570 0-239300-120990-350880-259450-350880-134440 0-224520 104860-233930 291730l25540 24190c6730-69900 57810-112920 118310-112920 68560 0 120990 53770 120990 146540 0 98140-57810 151910-129060 151910-61840 0-104860-38990-126370-100830l-29570 18820c21510 182840 107550 285010 246020 285010zm-418100 225850h224510V458460c0-139810-55120-203000-177460-203000-40330 0-75280 6730-116960 18830v188210c12100-4040 20170-6720 29580-6720 28230 0 40330 21500 40330 64530v664110zM4716030 958570c102170 0 184180-64530 217790-176110l-21510-86040c-12100 60490-53780 95440-107550 95440-47060 0-73940-26880-73940-68560 0-45700 33610-71250 90070-71250 36300 0 61840 10760 83350 10760 13450 0 24200-5380 32260-10760l-28230-13440v120990c0 135780 43020 197620 164010 197620 40340 0 76630-6720 116960-18820V751530c-10750 4040-18810 5380-26880 5380-28230 0-40330-20160-40330-61840V531060c0-174770-114280-276940-309210-276940-94100 0-173420 24200-241980 71250v177460c60500-48400 120990-72600 194930-72600 80660 0 145190 28230 145190 73940 0 25540-20160 41680-52430 41680-29570 0-71250-14790-125030-14790-129050 0-216440 84690-216440 215100 0 125020 80660 212410 198970 212410zM5252430 942440h223160V685660h166710v256780h224500V270260h-224500v220470h-166710V270260h-223160zM5927300 463840h572700V270260h-572700v193580zm397940 489350c43010 0 86030-5380 123670-14790V746160c-16130 2690-32260 5370-49740 5370-59150 0-79310-30910-79310-100820V402000h-223170v301140c0 178800 69910 250050 228550 250050z"/>
    </g>
  </g>
</svg>
