<svg xmlns="http://www.w3.org/2000/svg" xml:space="preserve" width="650" height="230" version="1.0" style="shape-rendering:geometricPrecision;text-rendering:geometricPrecision;image-rendering:optimizeQuality;fill-rule:evenodd;clip-rule:evenodd" viewBox="0 0 6500000 2300000">
  <defs>
    <style>
      .fil0{fill:#fff;fill-rule:nonzero}
    </style>
  </defs>
  <g id="Layer_x0020_1">
    <g id="_2161615847360">
      <path class="fil0" d="M859110 1871140c200460 0 382700-54670 499850-148390v-354070c-117150 117150-294190 184840-468610 184840-328020 0-538900-242110-538900-603980s210880-603990 538900-603990c174420 0 351460 67690 468610 184840V176340C1241810 82620 1059570 27950 859110 27950 341040 27950 0 392420 0 949540s341040 921600 859110 921600zM1493180 803750h1075200V533000H1493180v270750zm731560 1049160c67680 0 122350-10410 171820-26040v-265530c-28640 10410-54670 15620-83310 15620-96320 0-135370-67690-135370-210880V723050h-304600v708120c0 291580 114550 421740 351460 421740zM3096870 1865930c216080 0 390500-130170 463400-369680l-52070-187440c-28640 197850-158800 309800-317610 309800-122360 0-190050-67690-190050-177030 0-122350 88520-208280 234300-208280 85920 0 164020 31240 229100 31240 33850 0 62480-7800 83310-31240l-54670-31240v307210c0 231690 80710 346250 294190 346250 57260 0 106730-7810 158800-26040v-260340c-23440 7820-41650 10420-57270 10420-70300 0-101530-52070-101530-161410v-395720c0-328020-200470-520670-549320-520670-179630 0-325420 52060-447780 153600v275950c119760-111940 231700-174420 385300-174420 179630 0 322820 83310 322820 216080 0 67690-36450 106740-101530 106740-65090 0-145800-36450-262950-36450-249920 0-429560 166620-429560 424360 0 234300 148400 398310 393120 398310zM4126770 1834690h304590v-546710h481620v546710h304600V533000h-304600v484230h-481620V533000h-304590zM5424810 803750h1075190V533000H5424810v270750zm731550 1049160c67690 0 122360-10410 171820-26040v-265530c-28640 10410-54670 15620-83310 15620-96330 0-135380-67690-135380-210880V723050h-304590v708120c0 291580 114550 421740 351460 421740z"/>
    </g>
  </g>
</svg>
