<svg xmlns="http://www.w3.org/2000/svg" xml:space="preserve" width="650" height="143" version="1.0" style="shape-rendering:geometricPrecision;text-rendering:geometricPrecision;image-rendering:optimizeQuality;fill-rule:evenodd;clip-rule:evenodd" viewBox="0 0 6500000 1430000">
  <defs>
    <style>
      .fil0{fill:#fff;fill-rule:nonzero}
    </style>
  </defs>
  <g id="Layer_x0020_1">
    <g id="_2161616921376">
      <path class="fil0" d="M12550 1060910c78490 73780 197780 114590 337490 114590 237010 0 375150-116160 375150-310800 0-403400-587060-252720-587060-502290 0-98890 91040-167960 230740-167960 116160 0 215040 47090 288820 139700V170910C590200 104980 478750 65740 356310 65740 145980 65740 0 180330 0 368690c0 378290 587050 240160 587050 499150 0 103600-95740 172670-244870 172670-125570 0-237010-48660-329630-145990v166390zM844480 484840h478750V368690h-304510v7840c76910-26680 108300-92610 108300-171090v-25110h-125570v17260c0 91040-53370 155400-156970 216610v70640zm353180 682810c54930 0 103600-9420 152250-28260v-122430c-47090 21980-83190 31390-128710 31390-81620 0-125570-31390-125570-117720V459730H970050v486590c0 155410 83190 221330 227610 221330zM1585360 249390c53370 0 89470-32960 89470-86330s-36100-86330-89470-86330c-53360 0-89470 32960-89470 86330s36110 86330 89470 86330zm117730 913550c32960 0 54940-6280 73770-14130v-111440c-15690 6280-31390 9410-45520 9410-50220 0-73770-42380-73770-131850V585300c0-150690-58080-226030-171090-226030-32970 0-54940 6280-73780 14130v111440c15700-6270 29830-9420 43950-9420 51800 0 75350 42390 75350 131860v329620c0 150690 58070 226040 171090 226040zM1930690 1153530h125570V588440c0-153830-58070-229170-171090-229170-32960 0-54940 6280-73770 14130v114580c15690-6280 31390-9410 45520-9410 50230 0 73770 42380 73770 131850v543110zm528980 9410c36100 0 65930-7850 86330-15700v-120860c-17260 6280-42380 10990-62780 10990-48660 0-78490-28260-78490-83190 0-64360 40810-144420 70640-213480 50230-113020 105170-271550 218180-271550 67500 0 130280 58070 130280 149110 0 119300-109870 185230-109870 335920 0 127140 78480 208760 211900 208760 40810 0 70640-7850 91040-15700v-120860c-17260 6280-42380 10990-67490 10990-65930 0-106740-29820-106740-97320 0-109880 109880-177380 109880-332770 0-150690-102030-257430-249580-257430-133420 0-218190 86330-252710 255860h26680c7840-149120-73780-255860-221330-255860-169520 0-258990 138130-271550 409690h59650c0-186790 69060-290390 193070-290390 92610 0 136560 58070 136560 149110 0 134990-98890 200920-98890 346900 0 122430 70630 197780 185220 197780zM3803310 1162940c32960 0 54940-6280 73770-14130v-114580c-15690 6280-31390 9420-45520 9420-50230 0-73770-42380-73770-131850V368690h-125570v565080c0 153820 58070 229170 171090 229170zm-387710 9420c183650 0 276260-138130 288820-409690h-59650c0 186800-72200 290400-213470 290400-106740 0-158540-58090-158540-145990 0-138130 125570-188360 125570-337480 0-128710-94180-210330-227600-210330-40810 0-70630 7850-91040 15700v114580c17260-6280 42380-10980 67500-10980 72200 0 122430 39240 122430 106730 0 106740-125570 158540-125570 324920 0 155400 111450 262140 271550 262140zM4202010 1162940c32960 0 54930-6280 73770-14130v-111440c-15700 6280-31390 9410-45520 9410-50230 0-73780-42380-73780-131850V239970c0-150690-58070-226030-171090-226030-32960 0-54940 6280-73770 14130v111450c15690-6280 29820-9420 43950-9420 51790 0 75340 42380 75340 131850v674950c0 150690 58080 226040 171100 226040zM4581860 1172360c141280 0 252720-81620 298240-235460l-34530-122420c-18840 156960-120860 243290-238590 243290-89470 0-138130-48660-138130-125570 0-89470 65920-158540 166390-158540 61210 0 122430 25120 171090 25120 23540 0 43950-6280 59650-25120l-34540-21970v216610c0 127150 50230 194640 167950 194640 25120 0 45530-3140 64360-10990v-111440c-14120 4710-25110 6270-36100 6270-48660 0-70640-36100-70640-116150V657510c0-193070-111440-307660-309220-307660-106740 0-193070 32960-260570 98890v138130c73780-75340 138140-120870 237030-120870 117720 0 211900 62790 211900 161680 0 48660-21970 75350-62790 75350-40810 0-91040-25120-166380-25120-152260 0-265280 103600-265280 260570 0 138130 87900 233880 240160 233880zM5230140 1153530h125570V588440c0-153830-58080-229170-171090-229170-32970 0-54940 6280-73780 14130v114580c15700-6280 31400-9410 45520-9410 50230 0 73780 42380 73780 131850v543110zm610600 9410c40810 0 70640-7850 91040-15700v-114580c-17270 6280-42380 10990-67500 10990-72200 0-122430-39250-122430-106750 0-106730 125570-158530 125570-324920 0-155390-111440-262130-279400-262130-191500 0-291960 138130-304510 409690h59640c0-186790 80060-290390 230750-290390 113010 0 164810 58070 164810 145980 0 138120-125570 188360-125570 337470 0 128720 94180 210340 227600 210340zM5994570 484840h478740V368690h-304510v7840c76920-26680 108310-92610 108310-171090v-25110h-125570v17260c0 91040-53370 155400-156970 216610v70640zm353170 682810c54940 0 103600-9420 152260-28260v-122430c-47090 21980-83190 31390-128710 31390-81630 0-125570-31390-125570-117720V459730h-125580v486590c0 155410 83190 221330 227600 221330z"/>
    </g>
  </g>
</svg>
