<svg xmlns="http://www.w3.org/2000/svg" xml:space="preserve" width="650" height="90" version="1.0" style="shape-rendering:geometricPrecision;text-rendering:geometricPrecision;image-rendering:optimizeQuality;fill-rule:evenodd;clip-rule:evenodd" viewBox="0 0 6500000 899990">
  <defs>
    <style>
      .fil0{fill:#fff;fill-rule:nonzero}
    </style>
  </defs>
  <g id="Layer_x0020_1">
    <g id="_2161448349376">
      <path class="fil0" d="M250070 776580c61580 0 120370-12130 191280-39190l63460-224870h18660v245400h279930V104750H523470v243540c0 116640-42920 162360-154890 162360-69050 0-108250-17730-108250-49460 0-69980 184760-52250 184760-189420 0-105440-110110-167020-296730-167020H9330v242610h56920c62520 0 101710 21460 101710 55980C167960 475190 0 454660 0 595560c0 108240 99840 181020 250070 181020zM855660 757920h279930V514380c0-116640 42920-162360 154890-162360 69050 0 108240 17730 108240 49450 0 69990-184750 52260-184750 189430 0 105440 110100 167020 296720 167020h139040V515320h-56920c-62520 0-101710-21470-101710-55990 0-71850 167960-51320 167960-192220 0-108240-99850-181020-250080-181020-61580 0-120370 12130-191280 39190l-63450 224880h-18660V104750H855660v653170zM2076160 776580c233270 0 374170-112900 390030-278990l-261270-37330c-13060 29860-57850 57850-117570 57850-66250 0-113840-34520-113840-86770 0-52260 47590-86780 113840-86780 59720 0 104510 27990 117570 57850l261270-37330c-15860-166090-156760-278990-390030-278990-247280 0-392840 127830-392840 345250 0 217410 145560 345240 392840 345240zM2891690 776580c244470 0 383500-127830 383500-345240 0-217420-139030-345250-383500-345250-245410 0-391900 127830-391900 345250 0 217410 146490 345240 391900 345240zm0-258470c-70920 0-120370-34520-120370-86770 0-52260 49450-86780 120370-86780 69980 0 111970 34520 111970 86780 0 52250-41990 86770-111970 86770zM3540190 589960h192220c87720 0 116640 8400 116640 26130 0 28930-76510 44790-136230 44790-72780 0-143700-23330-179160-53190l6530-17730zm130640-245400c67180 0 129700 25190 139970 62510l-11200 14940h-258470l-13070-13070c12130-41060 77450-64380 142770-64380zm-382570 409630c69980 71850 195950 134360 432960 134360 282730 0 406830-88640 406830-211810 0-113840-105440-163290-306060-163290v-18660c228610 0 306990-75590 306990-303260v-86780h-279930v223940h-18660c-14930-154890-110100-237940-273400-237940-150230 0-249140 70920-249140 178230 0 80240 55050 131560 170760 142760v18660c-128770 0-171690 28000-171690 80250 0 48520 37320 73720 167960 79310l1860 18660-188480 145570zM4534880 776580c215550 0 352720-97040 379780-267800l-206220-32660-930-17720 211810-37330c-8400-225810-161420-334980-388170-334980-244470 0-387240 127830-387240 345250 0 217410 142770 345240 390970 345240zm940-460950c57850 0 102640 24260 117570 73720l-10270 9330h-205280l-12130-7470c6530-49450 50390-75580 110110-75580zm2790 227680c-57850 0-102640-26130-117570-69980l10270-9340h205280l12130 7470c-6530 43860-50390 71850-110110 71850zM4962250 757920h279930V514380c0-116640 42920-162360 154890-162360 69050 0 108240 17730 108240 49450 0 69990-184750 52260-184750 189430 0 105440 110100 167020 296730 167020h139030V515320h-56920c-62520 0-101710-21470-101710-55990 0-71850 167960-51320 167960-192220 0-108240-99840-181020-250070-181020-61590 0-120380 12130-191290 39190l-63450 224880h-18660V104750h-279930v653170zM6153820 776580c220210 0 346180-139030 346180-348980l-201550-51320v-19590h182890V104750h-314460l-50390 186620h-18660V11440l-279930 27990v423630c0 188490 126900 313520 335920 313520zm19590-243540c-53180 0-75580-41990-75580-92370v-83980h151160v83980c0 50380-22390 92370-75580 92370z"/>
    </g>
  </g>
</svg>
