<svg xmlns="http://www.w3.org/2000/svg" xml:space="preserve" width="650" height="85" version="1.0" style="shape-rendering:geometricPrecision;text-rendering:geometricPrecision;image-rendering:optimizeQuality;fill-rule:evenodd;clip-rule:evenodd" viewBox="0 0 6500000 850000">
  <defs>
    <style>
      .fil0{fill:#fff;fill-rule:nonzero}
    </style>
  </defs>
  <g id="Layer_x0020_1">
    <g id="_2161443308128">
      <path class="fil0" d="M353150 785890C140530 785890 0 682770 0 551370c0-88520 81210-145100 215350-154220v-17340L5470 340570C22810 180870 159690 92360 375050 92360c209880 0 350420 102200 350420 234520 0 86690-62060 143270-196200 154220l-910 17340 209880 38330c-17340 159690-167000 249120-385090 249120zm14600-459920c-53840 0-100380 23730-114980 72090l10040 9130h209880l11860-7310c-6380-48360-60220-73910-116800-73910zm-7300 227220c56580 0 114070-23730 128670-73000l-10040-9130H250940l-11860 7300c6390 49280 62970 74830 121370 74830zM783870 849760h273760V509390h18250c24640 147830 96730 267370 267370 267370 186160 0 322130-142350 322130-342200 0-192540-126840-333080-328510-333080-62970 0-125930 13690-198940 38330l-62050 219010h-18250V119740H783870v730020zm468130-325770c-88520 0-152400-33770-152400-84870s63880-84860 152400-84860c88510 0 138700 33760 138700 84860s-50190 84870-138700 84870zM1934580 772200c171550 0 247290-98550 260070-232700h18250v219010h273760V438210c0-211710-145090-336730-394210-336730-230880 0-351330 106770-394220 255520l222660 33760-2740 17340c-144180 0-234520 68440-234520 175210 0 112240 99470 188890 250950 188890zm135050-446230c52020 0 101290 23730 114070 72090l-10040 9130h-200760l-11860-7310c6390-48360 54750-73910 108590-73910zm-3650 220830c-52010 0-95810-21900-109500-66610l10040-9130h201670l10950 7300c-7300 44720-59320 68440-113160 68440zM2952060 776760c236340 0 470860-74820 470860-355890 0-271020-217180-410640-484550-410640-141450 0-302050 39240-380530 163340l206230 95820-1820 18250c-124110 14600-236350 83040-236350 229050 0 222660 259160 260070 426160 260070zm167900-302050-42890-147830c-70260-31930-176120-39240-252770-39240l-7300-17330c41060-20080 88520-29210 135970-29210 150570 0 215360 93080 185240 232700l-18250 910zm-188890 80310c-87610 0-142360-19170-142360-51110 0-31020 52020-50180 139620-50180s142350 19160 142350 51100c0 31020-52010 50190-139610 50190zM3702160 776760c60230 0 117720-11860 187070-38320l62050-219930h18250v240000h273760V119740h-273760v238170c0 114060-41970 158780-151480 158780-67520 0-105850-17340-105850-48370 0-68440 180680-51100 180680-185240 0-103120-107680-163340-290180-163340h-135970v237260h55660c61140 0 99470 20980 99470 54750 0 70260-164260 50190-164260 187980 0 105860 97640 177030 244560 177030zM4667620 776760c210800 0 344940-94900 371410-261900l-201670-31940-920-17330 207150-36500c-8210-220840-157870-327610-379620-327610-239080 0-378700 125020-378700 337640 0 212630 139620 337640 382350 337640zm920-450790c56570 0 109500 23730 124100 72090l-10030 9130h-219010l-11870-7310c6390-48360 58400-73910 116810-73910zm2740 227220c-56580 0-109510-23730-124110-73000l10040-9130h219010l11860 7300c-6390 49280-58400 74830-116800 74830zM5085570 758510h273760V521250h173380v237260h273760V119740h-273760v237260h-173380V119740h-273760zM6306540 758510h139620V521250h-119540c-58410 0-99470-30110-99470-71180 0-41060 41060-83950 151480-83950h121370V119740h-651550v246380h166990c76660 0 121370 8220 121370 41980 0 67530-180680 24630-180680 175210 0 125010 125020 175200 350410 175200z"/>
    </g>
  </g>
</svg>
