<svg xmlns="http://www.w3.org/2000/svg" xml:space="preserve" width="650" height="128" version="1.0" style="shape-rendering:geometricPrecision;text-rendering:geometricPrecision;image-rendering:optimizeQuality;fill-rule:evenodd;clip-rule:evenodd" viewBox="0 0 6500000 1280000">
  <defs>
    <style>
      .fil0{fill:#fff;fill-rule:nonzero}
    </style>
  </defs>
  <g id="Layer_x0020_1">
    <g id="_2161445956208">
      <path class="fil0" d="M1115950 1141290c216950 0 514720-164490 514720-499130 0-297780-236800-494870-503380-494870h-120530V6910H623910v438150h-28360l-80830-297770C297770 147290 0 311770 0 646410c0 297780 236800 494880 503380 494880h120530v141800h382850V843510h28360l80830 297780zM623910 758430h-32620c-76570 0-168730-18430-168730-116270 0-96430 92160-112020 168730-112020h32620v228290zm382850 0V530140h32620c76570 0 168740 18430 168740 114860 0 97840-92170 113430-168740 113430h-32620zM1695900 1141290h117690c350240 0 544510-77990 544510-272260 0-233960-280770-167320-280770-272250 0-52460 69480-65220 188590-65220h231140v609730h425390V148700H1701570v382860c171580 0 235380 66640 235380 130450s-63800 110600-154550 110600h-86500v368680zM3381870 1169640c93590 0 182920-18430 290690-59550l96420-341730h28360v372930h425390V148700h-425390v370090c0 177250-65230 246730-235380 246730-104940 0-164490-26940-164490-75150 0-106350 280760-79410 280760-287850 0-160230-167320-253820-450920-253820h-211280v368680h86500c95000 0 154560 32610 154560 85080 0 109180-255240 77980-255240 292100 0 164480 151730 275080 380020 275080zM4302140 1141290h425390V772610h269420v368680h425390V148700h-425390v368680h-269420V148700h-425390zM6199390 1141290h216950V772610h-185760c-90740 0-154550-46790-154550-110600s63810-130450 235380-130450h188590V148700H5487570v382860h259490c119110 0 188590 12760 188590 65220 0 104930-280760 38290-280760 272250 0 194270 194260 272260 544500 272260z"/>
    </g>
  </g>
</svg>
