<svg xmlns="http://www.w3.org/2000/svg" xml:space="preserve" width="650" height="148" version="1.0" style="shape-rendering:geometricPrecision;text-rendering:geometricPrecision;image-rendering:optimizeQuality;fill-rule:evenodd;clip-rule:evenodd" viewBox="0 0 6500000 1480000">
  <defs>
    <style>
      .fil0{fill:#fff;fill-rule:nonzero}
    </style>
  </defs>
  <g id="Layer_x0020_1">
    <g id="_2161450881440">
      <path class="fil0" d="M0 1479380h492920V866510h32860c44360 266180 174170 481430 481420 481430 335190 0 580010-256320 580010-616160 0-346680-228390-599720-591510-599720-113370 0-226740 24640-358190 69010L525780 595410h-32860V164930H0v1314450zm842900-586580c-159380 0-274400-60790-274400-152800s115020-152810 274400-152810c159370 0 249740 60800 249740 152810s-90370 152800-249740 152800zM1662790 1315070h492920V620h-492920zM2689710 1339720c308900 0 445270-177450 468280-418980h32860v394330h492920V738350c0-381190-261250-606290-709810-606290-415690 0-632580 192240-709810 460060l400910 60800-4920 31210c-259610 0-422270 123230-422270 315470 0 202100 179090 340120 451840 340120zm243180-778820c93650 0 182380 34510 205380 105160l-18070 16430h-361480l-21360-13140c11500-70660 98580-108450 195530-108450zm-6580 372980c-93650 0-172520-39430-197170-119940l18080-16430h363120l19720 13140c-13150 80510-106810 123230-203750 123230zM3792210 1315070h492920V886230c0-205380 75590-285890 272760-285890 121580 0 190590 31220 190590 87080 0 123230-325330 92010-325330 333540 0 185670 193890 294110 522500 294110h244820V887870h-100230c-110080 0-179090-37780-179090-98580 0-126520 295750-90370 295750-338470 0-190600-175810-318760-440340-318760-108440 0-211960 21360-336830 69010l-111730 395980h-32870V164930h-492920v1150140zM5890420 1347940c387770 0 609580-244820 609580-614510l-354900-90370v-34510h322040V164930h-553720l-88720 328610h-32860V620l-492930 49290v745950c0 331900 223460 552080 591510 552080zm34510-428850c-93660 0-133090-73930-133090-162660V608550h266180v147880c0 88730-39440 162660-133090 162660z"/>
    </g>
  </g>
</svg>
