<svg xmlns="http://www.w3.org/2000/svg" xml:space="preserve" width="650" height="240" version="1.0" style="shape-rendering:geometricPrecision;text-rendering:geometricPrecision;image-rendering:optimizeQuality;fill-rule:evenodd;clip-rule:evenodd" viewBox="0 0 6500000 2400000">
  <defs>
    <style>
      .fil0{fill:#fff;fill-rule:nonzero}
    </style>
  </defs>
  <g id="Layer_x0020_1">
    <path class="fil0" d="M0 1543390c149030 182690 355770 276420 613000 276420 370190 0 603340-194690 603340-500000 0-629810-995190-329310-995190-781230 0-173080 146650-286080 372620-286080 173070 0 314880 64920 430270 199540l129800-120190C1019230 163580 836540 79420 605770 79420c-341350 0-567310 189930-567310 475970 0 603380 995190 317300 995190 776460 0 189880-168270 314880-420650 314880-189930 0-346160-72110-485580-225960L0 1543390zM1519610 2391920h168270v-709110l9620-4810c100960 91350 238000 141810 389420 141810 346160 0 591350-262000 591350-634620 0-365380-235580-625000-567310-625000-173080 0-319690 69730-423080 201930h-9610l-19230-173080h-139430v1802880zm168270-1430270c93770-153840 230770-235570 396660-235570 252380 0 420650 185070 420650 461540 0 281230-175460 466340-444690 466340-153850 0-286080-60110-372620-168270V961650zM3014420 1252500h1064930c4800-36040 7190-74500 7190-108150 0-343770-233160-584160-567310-584160-348540 0-600960 264430-600960 632230 0 367770 254810 627390 610570 627390 192310 0 367810-74500 480770-209120l-115380-122610c-93730 108190-218730 165880-362960 165880-262040 0-439930-187500-439930-466340 0-274040 173080-461540 425510-461540 235570 0 391800 161040 391800 403840l33660-36070h-925470l-2420 158650zM4401460 1790960h168270V959230c91350-161040 213920-237960 377380-237960 211540 0 314930 129810 314930 389420v680270h168270v-701920c0-334120-168270-528850-459150-528850-163470 0-300470 62500-401430 185120h-9620l-19230-156270h-139420v1201920zM6423080 1562620c-60080 60070-120190 86540-197120 86540-127380 0-192300-74540-192300-225970V750120h384610V589040h-384610V252500h-163470v192310c0 108190-36030 144230-149030 144230h-55270v161080h197110v699500c0 228380 125000 360570 336540 360570 122580 0 225960-45650 300460-132190l-76920-115380z"/>
  </g>
</svg>
