<svg xmlns="http://www.w3.org/2000/svg" xml:space="preserve" width="650" height="130" version="1.0" style="shape-rendering:geometricPrecision;text-rendering:geometricPrecision;image-rendering:optimizeQuality;fill-rule:evenodd;clip-rule:evenodd" viewBox="0 0 6500000 1300000">
  <defs>
    <style>
      .fil0{fill:#fff;fill-rule:nonzero}
    </style>
  </defs>
  <g id="Layer_x0020_1">
    <g id="_2161488786608">
      <path class="fil0" d="M0 979740h362420c272780 0 475420-180570 475420-454640 0-274090-202640-454630-475420-454630H0v909270zm248110-231210V301680h114310c136380 0 223420 84420 223420 223420 0 138980-89640 223430-223420 223430H248110zM923570 655000c0 207830 148080 344210 362400 344210 111710 0 198750-35060 276690-107800l-124700-146790c-38970 46760-87040 68850-144200 68850-72740 0-124700-35080-145480-98720h457240c3900-22090 6500-41570 6500-70140 0-190960-124700-333840-335130-333840-206550 0-353320 137690-353320 344230zm228620-80540c20780-51960 63640-81840 123390-81840s101320 29880 116900 81840h-240290zM1710740 979740h236410V569270c28580-33770 59750-48070 96130-48070 59750 0 89610 40270 89610 109110v349430h237720V609530c0-187050-89630-297460-246800-297460-67550 0-122100 20790-171460 68840h-5200V5520h-236410v974220zM2556350 1304480h245520l337730-974220h-239010l-111710 376700h-5200l-126010-376700h-241600l259790 649480zM3443560 1000520c77930 0 146770-28570 198730-87040h5190l15590 66260h187050V5520h-237700v339020l-5190 2600c-42880-25980-92240-37660-145490-37660-183160 0-306550 140280-306550 349410 0 206540 119500 341630 288370 341630zm71430-211740c-68840 0-120790-55840-120790-135090 0-77940 51950-132490 124690-132490 35070 0 67550 12990 93530 35080v183140c-24690 31180-58460 49360-97430 49360zM3983920 979740h229910V579660c27290-32490 72740-53270 141600-53270 24670 0 42850 2600 58440 5200l-22070-215630c-9110-2600-27290-3890-42880-3890-70140 0-129900 25980-180550 76630h-5190l-18190-58440h-161070v649480zM4700950 997920c74030 0 138980-25970 187050-74050h5200l27260 55870h189650V588740c0-174060-120790-276670-319540-276670-115600 0-207830 35070-281870 102610l124700 145490c33780-38970 83140-59760 136380-59760 67550 0 106520 32490 106520 76650v29870l-5200 2600c-40250-13000-90920-23390-145480-23390-151970 0-252000 80540-252000 206550 0 120790 92240 205230 227330 205230zm87020-157180c-48050 0-76630-25980-76630-61040 0-37680 32470-62350 88330-62350 31180 0 54560 7790 75340 15590v67540c-20780 25980-50670 40260-87040 40260zM5232220 979740h236400V569270c28580-33770 59760-48070 96130-48070 59750 0 89640 40270 89640 109110v349430h237700V609530c0-187050-98720-297460-262390-297460-85730 0-142890 29870-192250 76630h-5190l-14280-58440h-185760v649480zM6067460 252320c0 58450-25980 77940-83140 77940h-23380v184450h85730v203930c0 181850 81830 274090 248100 274090 88330 0 158470-25980 205230-77940l-85730-161070c-25980 19480-44160 25980-68830 25980-38970 0-68860-15590-68860-100030V514710h179260V330260h-179260V145810h-209120v106510z"/>
    </g>
  </g>
</svg>
