<svg xmlns="http://www.w3.org/2000/svg" xml:space="preserve" width="650" height="118" version="1.0" style="shape-rendering:geometricPrecision;text-rendering:geometricPrecision;image-rendering:optimizeQuality;fill-rule:evenodd;clip-rule:evenodd" viewBox="0 0 6500000 1180000">
  <defs>
    <style>
      .fil0{fill:#fff;fill-rule:nonzero}
    </style>
  </defs>
  <g id="Layer_x0020_1">
    <g id="_2161487853136">
      <path class="fil0" d="m186680 871870 57730-149840h337740l56500 149840h190380L485140 12140H342670L-10 871870h186690zm112990-297220 108080-280030h9830l106860 280030H299670zM1198420 890290c185440 0 316870-126500 316870-314420 0-169490-106860-291070-271440-291070-88430 0-159670 34390-211250 101930h-2460c4920-133870 73700-197730 230900-210010l203890-15980-8590-159670-202660 15980C999450 37920 871720 180390 871720 460420v33170c0 243180 122820 396700 326700 396700zm-1240-157210c-88430 0-144930-68780-144930-171950v-42980c28260-51580 82300-87210 148620-87210 82280 0 140020 54040 140020 146170 0 90880-56500 155970-143710 155970zM1927960 890290c112990 0 203880-45440 268970-135110l-128950-103160c-30720 49120-77390 76140-133890 76140-92100 0-153510-71230-153510-163330 0-92130 60170-163360 151060-163360 56490 0 104400 27020 132640 76140l130190-103160c-65080-90890-155970-135110-266510-135110-198960-1210-329150 141260-329150 326700 0 185470 130190 324250 329150 324250zM2599270 890290c191600 0 331610-132650 331610-325460 0-192840-140010-325490-331610-325490s-331610 132650-331610 325490c0 192810 140010 325460 331610 325460zm0-163340c-87210 0-149840-62650-149840-162120 0-99500 62630-162130 149840-162130 87190 0 149840 62630 149840 162130 0 99470-62650 162120-149840 162120zM3396360 890290c171940 0 291090-132650 291090-327920 0-192840-115450-323030-277570-323030-78610 0-147390 30720-197750 89670h-4910l-13500-71230h-142470v921140h179310V844850l4910-2460c44220 30700 98260 47900 160890 47900zm-44220-163340c-46670 0-89650-17200-121580-50370V472700c31930-45430 76150-70000 128950-70000 85970 0 147380 66330 147380 162130 0 97010-62620 162120-154750 162120zM4109940 890290c185450 0 316880-126500 316880-314420 0-169490-106860-291070-271440-291070-88430 0-159670 34390-211250 101930h-2460c4920-133870 73700-197730 230900-210010l203880-15980-8580-159670-202670 15980c-254220 20870-381950 163340-381950 443370v33170c0 243180 122820 396700 326690 396700zm-1230-157210c-88430 0-144930-68780-144930-171950v-42980c28260-51580 82300-87210 148620-87210 82280 0 140020 54040 140020 146170 0 90880-56500 155970-143710 155970zM4514010 564830c0 194050 136340 324240 332850 324240 103170 0 187900-35630 255460-104410l-98250-112990c-40540 46670-90890 71230-152300 71230-85970 0-147380-49130-165810-130190h455670c3670-20860 6130-39300 6130-62620 0-178100-119130-309510-308270-309510-191600 0-325480 132650-325480 324250zm175640-68780c19650-67560 71240-111780 148600-111780 74930 0 126520 43000 138800 111780h-287400zM5270580 257780v614090h179310V637280h227230v234590h179310V257780h-179310v218610h-227230V257780zM5950990 257780v163340h186690v450750h175640V421120h186690V257780z"/>
    </g>
  </g>
</svg>
