<svg xmlns="http://www.w3.org/2000/svg" xml:space="preserve" width="650" height="205" version="1.0" style="shape-rendering:geometricPrecision;text-rendering:geometricPrecision;image-rendering:optimizeQuality;fill-rule:evenodd;clip-rule:evenodd" viewBox="0 0 6500000 2050000">
  <defs>
    <style>
      .fil0{fill:#fff;fill-rule:nonzero}
    </style>
  </defs>
  <g id="Layer_x0020_1">
    <path class="fil0" d="M0 1540390h120470V854430h300090l287880 553270c61240 114330 104100 138830 232730 134750l77580-2060v-116350h-77580c-81660 0-110240-18390-157210-110250L526720 807490v-8170l279710-481810c40830-67380 77580-89820 142910-89820h75520V111300l-77580-2020c-118410-4090-157180 16330-216410 120430L426700 742160H120470V111300H0v1429090zM1322640 2050770h118400l579810-1531160h-122500l-320540 865620h-6110l-342980-865620h-124550l414450 1020780zM2241330 2050770h112270v-614490l6140-4080c89830 85750 210260 130660 345010 130660 291950 0 500190-222550 500190-538970 0-308290-198040-526720-479780-526720-151070 0-281730 63270-371560 183740h-6110l-12250-161300h-93910v1531160zm112270-1233090c81660-136770 206210-210260 355230-210260 226630 0 381790 169430 381790 418500 0 255210-161300 426700-402200 426700-134750 0-255180-53080-334820-149050V817680zM4148140 1403620l20410 136770h87780V864650c0-232740-142910-367480-387900-367480-161270 0-291920 59190-389920 177600l79600 77580c79640-97990 181720-149020 306240-149020 175570 0 281730 102080 281730 271510v116390l-4080 2020c-95940-40830-193930-61240-291930-61240-249070 0-416470 130650-416470 328700 0 181680 142910 302150 355230 302150 144930 0 271510-55140 355230-159240h4080zm-2060-116380c-95940 118410-204150 175570-336840 175570-159240 0-261320-81660-261320-208240 0-136770 120440-224570 312350-224570 91880 0 191900 20420 285810 57160v200080zM4601360 1540390h112270v-469560h620630v469560h112300V519610h-112300v443040h-620630V519610h-112270zM6026360 1540390h114330V627830h359310V519610h-832950v108220h359310z"/>
  </g>
</svg>
