<svg xmlns="http://www.w3.org/2000/svg" xml:space="preserve" width="650" height="155" version="1.0" style="shape-rendering:geometricPrecision;text-rendering:geometricPrecision;image-rendering:optimizeQuality;fill-rule:evenodd;clip-rule:evenodd" viewBox="0 0 6500000 1550000">
  <defs>
    <style>
      .fil0{fill:#fff;fill-rule:nonzero}
    </style>
  </defs>
  <g id="Layer_x0020_1">
    <g id="_2161559535984">
      <path class="fil0" d="M357330 57160 0 1220550h154560L458710 185130h-26590l299150 1035420h151240L523520 57160H357330zM189470 916400h503570l-33230-134620H222710l-33240 134620zM1642030 356320h-136280v864230h136280V356320zm-664790 0v560080c0 201100 108030 324090 287530 324090 172840 0 275880-114680 275880-329070l-34900-16620c0 141260-78110 212730-202760 212730-119660 0-189460-66480-189460-211070V356320H977240zM1883020 148570v842620c0 149580 78110 229360 227690 229360h149580v-129640h-124650c-83090 0-116340-36570-116340-119660V148570h-136280zm-146250 337380h505240V356320h-505240v129630zM2692400 1240490c217730 0 354000-137950 354000-355670V692030c0-217720-136270-355660-354000-355660-217710 0-353990 137940-353990 355660v192790c0 217720 136280 355670 353990 355670zm0-771160c147920 0 217730 91410 217730 234340v169520c0 142930-69810 234340-217730 234340-147910 0-217710-91410-217710-234340V703670c0-142930 69800-234340 217710-234340zM3204300 1552940h136280V356320h-136280v1196620zm98050-639870c0 199440 99720 327420 287520 327420 194450 0 315780-137950 315780-355670V692030c0-217720-121330-355660-315780-355660-187800 0-287520 127970-287520 327410v249290zm252630-443740c137940 0 214390 83100 214390 234340v169520c0 151240-76450 234340-214390 234340-137950 0-214400-83100-214400-234340V703670c0-151240 76450-234340 214400-234340zM4384300 1240490c217720 0 354000-137950 354000-355670V692030c0-217720-136280-355660-354000-355660s-354000 137940-354000 355660v192790c0 217720 136280 355670 354000 355670zm0-771160c147910 0 217720 91410 217720 234340v169520c0 142930-69810 234340-217720 234340s-217720-91410-217720-234340V703670c0-142930 69810-234340 217720-234340zM4896190 356320v864230h136280V356320h-136280zm-6650-315780v166200h149580V40540h-149580zM5223600 1220550h136280V356320h-136280v864230zm664790 0V660460c0-201110-108030-324090-287520-324090-172850 0-275890 114680-275890 329070l34900 16620c0-141270 78120-212730 202760-212730 119670 0 189470 66480 189470 211070v540150h136280zM6122730 148570v842620c0 149580 78120 229360 227690 229360h149580v-129640h-124650c-83100 0-116340-36570-116340-119660V148570h-136280zm-146250 337380h505240V356320h-505240v129630z"/>
    </g>
  </g>
</svg>
