<svg xmlns="http://www.w3.org/2000/svg" xml:space="preserve" width="650" height="123" version="1.0" style="shape-rendering:geometricPrecision;text-rendering:geometricPrecision;image-rendering:optimizeQuality;fill-rule:evenodd;clip-rule:evenodd" viewBox="0 0 6500000 1230000">
  <defs>
    <style>
      .fil0{fill:#fff;fill-rule:nonzero}
    </style>
  </defs>
  <g id="Layer_x0020_1">
    <g id="_2161562216336">
      <path class="fil0" d="M0 40650v924240h298390c184850 0 290480-108270 290480-281230 0-176930-105630-281230-290480-281230H113540V151560h400070V40650H0zm113540 814650V512010h178250c116190 0 180890 63380 180890 171650 0 104300-64700 171640-180890 171640H113540zM702420 278310v686580h110910l314230-513610v513610h108270V278310h-110910L810680 791920V278310zM1642490 980730c172970 0 281230-109590 281230-282550V545020c0-172960-108260-282550-281230-282550-172960 0-281230 109590-281230 282550v153160c0 172960 108270 282550 281230 282550zm0-612630c117510 0 172970 72620 172970 186160v134680c0 113550-55460 186160-172970 186160s-172960-72610-172960-186160V554260c0-113540 55450-186160 172960-186160zM2131020 554260c0-120150 60740-186160 172960-186160 77900 0 130710 31680 159760 118830l102990-55460c-52820-112220-137320-169000-265390-169000-170320 0-278590 101670-278590 282550v153160c0 180880 108270 282550 278590 282550 128070 0 212570-56770 265390-169000l-102990-55460c-29050 87150-81860 118830-159760 118830-112220 0-172960-66010-172960-186160V554260zM2931140 980730c172970 0 281230-109590 281230-282550V545020c0-172960-108260-282550-281230-282550-172960 0-281230 109590-281230 282550v153160c0 172960 108270 282550 281230 282550zm0-612630c117510 0 172970 72620 172970 186160v134680c0 113550-55460 186160-172970 186160s-172960-72610-172960-186160V554260c0-113540 55450-186160 172960-186160zM3337800 1228950h108270V278310h-108270v950640zm77900-508330c0 158440 79220 260110 228420 260110 154480 0 250860-109590 250860-282550V545020c0-172960-96380-282550-250860-282550-149200 0-228420 101670-228420 260110v198040zm200690-352520c109590 0 170330 66010 170330 186160v134680c0 120150-60740 186160-170330 186160s-170320-66010-170320-186160V554260c0-120150 60730-186160 170320-186160zM4295050 875100c-113560 0-174290-66010-174290-186160v-93750c0-120150 60730-194080 174290-194080 110900 0 171640 66010 171640 186160v101670c0 120150-60740 186160-171640 186160zm-282560-194080c0 190120 108270 299710 281230 299710 172970 0 281230-109590 281230-281230V579350c0-171650-100340-281230-256140-281230-153160 0-228420 100350-241620 257470l34330-44900V382620c0-150520 44890-200690 186170-211250l121460-9250c81870-6600 122790-48840 122790-124100V1050h-104300v13200c0 26400-11880 40930-43570 43570l-100350 6600c-187480 11880-281230 114870-281230 319520v297080zM4779600 691580V551620c0-113550 55460-187480 170330-187480 116190 0 169000 73930 169000 191450v25080l13210-26410h-376300v96390h468720V543700c0-170320-105630-281230-274630-281230s-275950 109590-275950 282550v153160c0 180880 102990 282550 283870 282550 124110 0 211250-50170 260110-137310l-93750-66020c-33000 67340-83170 101660-163720 101660-118830 0-180890-66010-180890-187480zM5347350 278310v686580h108270V651970h306320v312920h108260V278310h-108260v268030h-306320V278310zM5969230 383940h211250v580950h108270V383940h211250V278310h-530770z"/>
    </g>
  </g>
</svg>
