<svg xmlns="http://www.w3.org/2000/svg" xml:space="preserve" width="650" height="263" version="1.0" style="shape-rendering:geometricPrecision;text-rendering:geometricPrecision;image-rendering:optimizeQuality;fill-rule:evenodd;clip-rule:evenodd" viewBox="0 0 6500000 2630000">
  <defs>
    <style>
      .fil0{fill:#fff;fill-rule:nonzero}
    </style>
  </defs>
  <g id="Layer_x0020_1">
    <g id="_2161554814992">
      <path class="fil0" d="M0 1733450c141300 251520 347610 370210 666950 370210 440870 0 689570-223260 689570-613260 0-370220-226090-576520-644350-576520-279780 0-412610-93260-412610-299560 0-217620 146960-339140 401310-339140 197830 0 327820 73480 409780 231740l211960-152610C1189780 145180 989130 46270 712170 46270c-404130 0-655650 211960-655650 573700 0 339130 217600 531300 607600 531300 305220 0 449350 118690 449350 344790 0 234560-155430 375860-443690 375860-223260 0-358910-84780-452180-282600L0 1733450zM1777610 1185180c0-257170 130000-398480 370210-398480 166750 0 279780 67830 341960 254350l220440-118700c-113050-240210-293920-361730-568050-361730-364560 0-596310 217600-596310 604780v327830c0 387170 231750 604780 596310 604780 274130 0 455000-121520 568050-361740l-220440-118700c-62180 186520-175210 254350-341960 254350-240210 0-370210-141300-370210-398480v-288260zM3114340 1479100v-299570c0-243040 118700-401310 364570-401310 248700 0 361740 158270 361740 409790v53700l28260-56530h-805440v206310h1003270v-228920c0-364560-226090-601950-587830-601950s-590650 234560-590650 604780v327830c0 387170 220430 604780 607610 604780 265650 0 452170-107390 556740-293920l-200660-141300c-70640 144130-178040 217610-350430 217610-254350 0-387180-141300-387180-401300zM4329560 2064100h231750V594530h-231750v1469570zm1130440 0v-952390c0-341960-183700-551090-488910-551090-293920 0-469130 195000-469130 559560l59350 28270c0-240220 132820-361750 344780-361750 203480 0 322170 113050 322170 358920v918480h231740zM5858480 241270v1432830c0 254350 132830 390000 387170 390000h254350v-220430h-211960c-141300 0-197820-62180-197820-203480V241270h-231740zm-248700 573700h859140V594530h-859140v220440z"/>
    </g>
  </g>
</svg>
