<svg xmlns="http://www.w3.org/2000/svg" xml:space="preserve" width="650" height="200" version="1.0" style="shape-rendering:geometricPrecision;text-rendering:geometricPrecision;image-rendering:optimizeQuality;fill-rule:evenodd;clip-rule:evenodd" viewBox="0 0 6500000 2000000">
  <defs>
    <style>
      .fil0{fill:#fff;fill-rule:nonzero}
    </style>
  </defs>
  <g id="Layer_x0020_1">
    <g id="_2161554062080">
      <path class="fil0" d="M0 1389460v514060h180670v-333380h985110v333380h180670v-514060h-193570V64510H260260l-12910 522670c-12900 479650-43020 675370-131200 802280H0zm316180 0c73130-141960 103240-367800 113990-791530l8610-352740h529120v1144270H316180zM1619620 1124900V896910c0-184980 90340-305440 277470-305440 189280 0 275310 120460 275310 311890v40870l21510-43020h-613000v157010h763560V884000c0-277460-172070-458140-447380-458140s-449540 178520-449540 460290v249500c0 294670 167770 460300 462440 460300 202190 0 344150-81740 423730-223700l-152710-107540c-53780 109690-135510 165610-266720 165610-193580 0-294670-107540-294670-305420zM2544510 451670v1118470h176370V451670h-176370zm176370 526970 468900 591500h223690l-477500-597960 451690-520510h-221550l-445230 526970zM3959790 1595950c281770 0 458150-178530 458150-460300V886150c0-281770-176380-460290-458150-460290-281760 0-458140 178520-458140 460290v249500c0 281770 176380 460300 458140 460300zm0-998020c191440 0 281770 118300 281770 303280v219390c0 184980-90330 303270-281770 303270-191430 0-281760-118290-281760-303270V901210c0-184980 90330-303280 281760-303280zM4622270 451670v1118470h176380v-509770h499000v509770h176370V451670h-176370v436630h-499000V451670zM5635340 623740h344150v946400h176370V623740h344140V451670h-864660z"/>
    </g>
  </g>
</svg>
