<svg xmlns="http://www.w3.org/2000/svg" xml:space="preserve" width="650" height="308" version="1.0" style="shape-rendering:geometricPrecision;text-rendering:geometricPrecision;image-rendering:optimizeQuality;fill-rule:evenodd;clip-rule:evenodd" viewBox="0 0 6500000 3080000">
  <defs>
    <style>
      .fil0{fill:#fff;fill-rule:nonzero}
    </style>
  </defs>
  <g id="Layer_x0020_1">
    <g id="_2161495157120">
      <path class="fil0" d="M0 2411340h290450V1383090h998200v-270420H290450V344830h1105030V74410H0zM2500520 2458080c504100 0 861320-380590 861320-881360s-357220-881350-861320-881350c-504110 0-861330 380580-861330 881350s357220 881360 861330 881360zm0-253730c-347210 0-587580-267070-587580-627630 0-360550 240370-627630 587580-627630 347200 0 587570 267080 587570 627630 0 360560-240370 627630-587570 627630zM4927580 2411340h270420V1403120c0-430660-240370-707750-624290-707750-230360 0-417320 103480-534160 290440V742100h-270420v1669240h270420v-934770c0-323840 196970-527480 474070-527480 263730 0 413960 183610 413960 494090v968160zM5451720 992490h293790v814590c0 413960 203640 624300 600930 624300h153560v-260410h-123520c-243710 0-360550-123520-360550-387270V992490h477400V742100h-477400V274720h-270420v467380h-293790v250390z"/>
    </g>
  </g>
</svg>
