<svg xmlns="http://www.w3.org/2000/svg" xml:space="preserve" width="650" height="236" version="1.0" style="shape-rendering:geometricPrecision;text-rendering:geometricPrecision;image-rendering:optimizeQuality;fill-rule:evenodd;clip-rule:evenodd" viewBox="0 0 6500000 2360000">
  <defs>
    <style>
      .fil0{fill:#fff;fill-rule:nonzero}
    </style>
  </defs>
  <g id="Layer_x0020_1">
    <g id="_2161493080448">
      <path class="fil0" d="M0 1847130h270940V308390h797480V57900H0zM1188560 2358330h250490v-713130c99680 150800 258160 237710 452410 237710 352740 0 616010-283720 616010-674790 0-391080-265820-674800-616010-674800-194250 0-352730 86900-452410 237710V569100h-250490v1789230zm659450-708020c-240270 0-408960-186590-408960-442190 0-255610 168690-442200 408960-442200s408970 186590 408970 442200c0 255600-168700 442190-408970 442190zM2903660 2358330h253040l690140-1789230h-263270l-345070 945740-362960-945740h-263270l500980 1252470zM4930600 569100v485650h-605780V569100h-247940v1278030h247940v-562330h605780v562330h250490V569100zM5408580 569100v227490h421750v1050540h247930V796590h421740V569100z"/>
    </g>
  </g>
</svg>
