<svg xmlns="http://www.w3.org/2000/svg" xml:space="preserve" width="650" height="126" version="1.0" style="shape-rendering:geometricPrecision;text-rendering:geometricPrecision;image-rendering:optimizeQuality;fill-rule:evenodd;clip-rule:evenodd" viewBox="0 0 6500000 1260000">
  <defs>
    <style>
      .fil0{fill:#fff;fill-rule:nonzero}
    </style>
  </defs>
  <g id="Layer_x0020_1">
    <g id="_2161495904368">
      <path class="fil0" d="M490820 1006930c196600 0 353880-98980 427100-265750l-147790-74570c-50170 116600-146440 181680-277950 181680-189830 0-321340-138300-321340-337610s131510-337610 322690-337610c128810 0 225070 63730 275240 177620l146440-77290C840630 110700 684710 14430 490820 14430 203380 14430 0 223240 0 510680s203380 496250 490820 496250zM1048080 307300v677940h153210l301000-451510v451510h154570V307300h-154570l-299640 451500V307300zM2211410 707280l-193890-399980h-184400v677940h142370V513390l188470 378290h90830l188470-378290v471850h142370V307300h-181690zM3103570 1004220c208800 0 351170-141020 351170-349820 0-200670-132880-338960-325410-338960-107110 0-192530 43380-245410 124740 9490-178980 94910-256270 292860-271180l226430-14910-6780-150500-227780 17620c-299650 24410-428460 181690-428460 523370v31180c0 271170 141020 428460 363380 428460zm0-141020c-113900 0-193890-84060-193890-206090 0-122020 79990-203380 193890-203380 113890 0 195240 81360 195240 203380 0 122030-81350 206090-195240 206090zM3595740 307300v677940h153210l301010-451510v451510h154570V307300h-154570l-299650 451500V307300zM4703480 1004220c208810 0 356600-153220 356600-357950 0-204740-147790-357950-356600-357950-208800 0-356590 153210-356590 357950 0 204730 147790 357950 356590 357950zm0-142370c-116600 0-200660-90840-200660-215580s84060-215580 200660-215580c116610 0 200670 90840 200670 215580s-84060 215580-200670 215580zM5649880 307300v249480h-294230V307300h-154560v677940h154560V696430h294230v288810h153210V307300zM5918340 307300v139660h214220v538280h153210V446960h214230V307300z"/>
    </g>
  </g>
</svg>
