<svg xmlns="http://www.w3.org/2000/svg" xml:space="preserve" width="650" height="145" version="1.0" style="shape-rendering:geometricPrecision;text-rendering:geometricPrecision;image-rendering:optimizeQuality;fill-rule:evenodd;clip-rule:evenodd" viewBox="0 0 6500000 1450000">
  <defs>
    <style>
      .fil0{fill:#fff;fill-rule:nonzero}
    </style>
  </defs>
  <g id="Layer_x0020_1">
    <g id="_2161498981200">
      <path class="fil0" d="M0 1126470h206590V403400l455710 723070h227860V63140H683570v723060L227850 63140H0zM1467400 1147740c144300 0 261270-60770 335700-167100l-138230-109370c-41010 69880-109370 106330-192920 106330-113930 0-194430-68360-214180-176210h574200c4550-30370 6080-56200 6080-78990 0-224820-151910-376720-375210-376720-233940 0-399510 165570-399510 401030 0 236970 165570 401030 404070 401030zm-7600-638000c100260 0 170130 59240 182290 151900h-379760c25820-94180 98730-151900 197470-151900zM1945890 611520c0 88100 37980 153420 95710 195950-42540 42530-65330 78990-65330 127600 0 47090 21270 88100 66840 123040-89620 28860-141270 91140-141270 177730 0 138230 130640 215700 364570 215700 259760 0 419260-95690 419260-255190 0-147350-138230-227860-390400-229380-120000-1520-164050-19750-164050-57730 0-19740 10630-34930 27340-45570 36460 9120 75960 13680 115450 13680 195950 0 326590-110900 326590-265830 0-53170-15190-101780-44050-142800l115450-109370-100260-97220-115450 123040c-50120-25820-110890-39490-182280-39490-198990 0-328120 110890-328120 265840zm138240 598500c0-54690 74430-83550 205070-83550 124560 0 195960 25830 195960 75950 0 54690-86590 89620-214190 89620-116970 0-186840-28860-186840-82020zm44050-598500c0-65330 56210-112420 145830-112420s144310 47090 144310 112420c0 65310-54690 112400-144310 112400s-145830-47090-145830-112400zM2959100 1126470V29720h-197480v1096750zM3141380 1126470h197480V366950h-197480v759520zm100260-871930c69870 0 121520-51650 121520-123050 0-71390-51650-123040-121520-123040-69880 0-124560 51650-124560 123040 0 71400 54680 123050 124560 123050zM3501400 611520c0 88100 37970 153420 95700 195950-42530 42530-65320 78990-65320 127600 0 47090 21260 88100 66840 123040-89630 28860-141280 91140-141280 177730 0 138230 130650 215700 364580 215700 259750 0 419250-95690 419250-255190 0-147350-138230-227860-390390-229380-120010-1520-164060-19750-164060-57730 0-19740 10640-34930 27350-45570 36450 9120 75940 13680 115440 13680 195960 0 326600-110900 326600-265830 0-53170-15190-101780-44050-142800l115440-109370-100260-97220-115440 123040c-50130-25820-110890-39490-182290-39490-199000 0-328110 110890-328110 265840zm138230 598500c0-54690 74440-83550 205070-83550 124560 0 195960 25830 195960 75950 0 54690-86580 89620-214190 89620-116960 0-186840-28860-186840-82020zm44050-598500c0-65330 56210-112420 145830-112420 89630 0 144310 47090 144310 112420 0 65310-54680 112400-144310 112400-89620 0-145830-47090-145830-112400zM4677140 1147740c144310 0 261280-60770 335710-167100l-138240-109370c-41010 69880-109370 106330-192910 106330-113930 0-194440-68360-214190-176210h574200c4560-30370 6070-56200 6070-78990 0-224820-151900-376720-375200-376720-233930 0-399510 165570-399510 401030 0 236970 165580 401030 404070 401030zm-7600-638000c100260 0 170140 59240 182290 151900h-379760c25820-94180 98740-151900 197470-151900zM5688830 1126470h197470V641890c0-176210-115450-296210-284060-296210-92660 0-164060 36460-217220 112410v-91140h-197480v759520h197480V711770c0-118490 66840-183810 162540-183810 94170 0 141270 62280 141270 170140v428370zM5977440 543160h126090v270380c0 220270 100250 322050 319000 322050h77470V950260h-50130c-104810 0-148870-42530-148870-151900V543160h192920V366950h-192920V154280h-197470v212670h-126090v176210z"/>
    </g>
  </g>
</svg>
