<svg xmlns="http://www.w3.org/2000/svg" xml:space="preserve" width="650" height="160" version="1.0" style="shape-rendering:geometricPrecision;text-rendering:geometricPrecision;image-rendering:optimizeQuality;fill-rule:evenodd;clip-rule:evenodd" viewBox="0 0 6500000 1600000">
  <defs>
    <style>
      .fil0{fill:#fff;fill-rule:nonzero}
    </style>
  </defs>
  <g id="Layer_x0020_1">
    <g id="_2829856654176">
      <path class="fil0" d="M333160 1399690C109940 1399690 0 1234780 0 899950V700050c0-334830 109940-499740 333160-499740s333160 164910 333160 499740v199900c0 334830-109940 499740-333160 499740zM199900 949920V650080c0-21660-11670-33320-33320-33320-21660 0-33320 11660-33320 33320v299840c0 21660 11660 33320 33320 33320 21650 0 33320-11660 33320-33320zM1395950 216970H927850l-36650 974500h-16650l-36650-974500H691310l49980 1166060h588030zM1570860 1383030V216970h-133270v1166060h133270zm-59970-899540h493080V216970h-493080v266520zm0 899540h493080V883290h-493080v499740zm0-566370h493080V550130h-493080v266530zM2070600 1383030h133270V816660h46640l-16650-19990 103270 586360h466430l-119940-664660-9990 31660c61630-48310 99950-124940 99950-233220 0-209890-143270-299840-319840-299840h-383140v266520h199900c21660 0 33320 11670 33320 33320s-11660 33320-33320 33320h-199900v832900zM3128400 1383030h333160v-266520h-166590c-21650 0-33310-11670-33310-33320 0-21660 11660-33320 33310-33320h166590V216970h-333160c-223230 0-333170 148250-333170 483080v199900c0 334830 109940 483080 333170 483080zM4194520 1383030h-466430V216970h466430v1166060zm-533070 0h-133260V216970h133260v1166060zm126610-566370h-174910V550130h174910v266530zM4974110 1383030l-66620-1166060h-604700l-66630 1166060h146590l53310-974500h16660l69960 974500h451430zm-423110-399790h-193230v266530h193230V983240zM5833670 216970h-466420v974500h-16660l-69960-974500h-264870v1166060h133260V408530h16670l69960 974500h598020zM5900310 483490h599690V216970h-599690v266520zm533060 899540V216970h-466430v1166060h466430z"/>
    </g>
  </g>
</svg>
