<svg xmlns="http://www.w3.org/2000/svg" xml:space="preserve" width="650" height="223" version="1.0" style="shape-rendering:geometricPrecision;text-rendering:geometricPrecision;image-rendering:optimizeQuality;fill-rule:evenodd;clip-rule:evenodd" viewBox="0 0 6500000 2230000">
  <defs>
    <style>
      .fil0{fill:#fff;fill-rule:nonzero}
    </style>
  </defs>
  <g id="Layer_x0020_1">
    <g id="_2829858772160">
      <path class="fil0" d="M0 2005760h712610V516910h25440l106900 1488850h773690l106890-1488850h25450v1488850h203600V224240h-811870l-101790 1532110h-25450L913660 224240H0zM2539940 2031210c-341040 0-509010-251960-509010-763510V962300c0-511550 167970-763510 509010-763510 341030 0 509000 251960 509000 763510v305400c0 511550-167970 763510-509000 763510zm203600-687160c0 33090 17810 50900 50900 50900 33080 0 50900-17810 50900-50900V885950c0-33090-17820-50900-50900-50900-33090 0-50900 17810-50900 50900v458100zM3621580 2031210c341030 0 509000-251960 509000-763510V224240h-203600v585360c0 33080-17810 50890-50900 50890-33080 0-50900-17810-50900-50890V224240h-712610v1043460c0 511550 167970 763510 509010 763510zM4232390 2005760h712600V516910h25450l106900 1488850h404650V224240h-203600v1488850h-25450L5146050 224240h-913660zM5583790 631440h916210V224240h-916210v407200zm814410 1374320V224240h-712610v1781520h712610z"/>
    </g>
  </g>
</svg>
