<svg xmlns="http://www.w3.org/2000/svg" xml:space="preserve" width="650" height="216" version="1.0" style="shape-rendering:geometricPrecision;text-rendering:geometricPrecision;image-rendering:optimizeQuality;fill-rule:evenodd;clip-rule:evenodd" viewBox="0 0 6500000 2160000">
  <defs>
    <style>
      .fil0{fill:#fff;fill-rule:nonzero}
    </style>
  </defs>
  <g id="Layer_x0020_1">
    <g id="_2829851271584">
      <path class="fil0" d="M-10 2044130h772830V112070H-10v1932060zm883240 0h220800V112070H883230v1932060zM673460 550930h289810V109310H673460v441620zM1736090 548160c0 80040-66240 115930-207000 115930h-314650v1396600h115920c414010 0 502330-433330 502330-794910V534370h-96600v13790zm979830 1490450V112070H1214440v441610h728660v1484930h772820zM4181520 2044130V112070h-990860l-115930 1614650h-27600V112070h-220800v1932060h990860l115930-1614650h27600v1614650zM4291930 2044130h772830V112070h-772830v1932060zm883220 0h220820V112070h-220820v1932060zm-209760-938430h289810V664090h-289810v441610zM5506370 553680h993620V112070h-993620v441610zm883230 1490450V112070h-772830v1932060h772830z"/>
    </g>
  </g>
</svg>
