<svg xmlns="http://www.w3.org/2000/svg" xml:space="preserve" width="650" height="160" version="1.0" style="shape-rendering:geometricPrecision;text-rendering:geometricPrecision;image-rendering:optimizeQuality;fill-rule:evenodd;clip-rule:evenodd" viewBox="0 0 6500000 1600000">
  <defs>
    <style>
      .fil0{fill:#fff;fill-rule:nonzero}
    </style>
  </defs>
  <g id="Layer_x0020_1">
    <g id="_2829853685184">
      <path class="fil0" d="M57090 816790h94030l100750 570910h470160L594420 682460l127610-470160H251870L151120 548130H57090v268660zM0 1387700h134330V212300H0v1175400zM1074650 1404490c-225000 0-335820-166230-335820-503740V699250c0-337510 110820-503750 335820-503750 225010 0 335840 166240 335840 503750v201500c0 337510-110830 503740-335840 503740zM940320 951120V648880c0-21840-11750-33590-33580-33590s-33590 11750-33590 33590v302240c0 21830 11760 33590 33590 33590s33580-11760 33580-33590zM2149310 1387700h-470160V212300h470160v1175400zm-537330 0h-134330V212300h134330v1175400zm127620-570910h-176310V548130h176310v268660zM2216480 480960h604500V212300h-604500v268660zm537330 906740V212300h-470170v1175400h470170zM3712610 1387700V212300h-602820l-70520 982300h-16800V212300h-134330v1175400h602820l70520-982300h16790v982300zM3779770 1387700V212300h470160v1175400h-470160zm537330 0V212300h134330v1175400h-134330zm-127620-570910V548130h176310v268660h-176310zM4652930 1387700V212300h-134330v1175400h134330zm-60450-906740h497030V212300h-497030v268660zm0 906740h497030V883960h-497030v503740zm0-570910h497030V548130h-497030v268660zM5828340 1387700h-470170V212300h470170v1175400zm-537330 0h-134340V212300h134340v1175400zm127610-570910h-176310V548130h176310v268660zM5895500 480960h604500V212300h-604500v268660zm537330 906740V212300h-470160v1175400h470160z"/>
    </g>
  </g>
</svg>
