<svg xmlns="http://www.w3.org/2000/svg" xml:space="preserve" width="650" height="135" version="1.0" style="shape-rendering:geometricPrecision;text-rendering:geometricPrecision;image-rendering:optimizeQuality;fill-rule:evenodd;clip-rule:evenodd" viewBox="0 0 6500000 1350000">
  <defs>
    <style>
      .fil0{fill:#fff;fill-rule:nonzero}
    </style>
  </defs>
  <g id="Layer_x0020_1">
    <g id="_2161562937856">
      <path class="fil0" d="M0 1069800h215260V51670H0zM410160 1069800h197800V629090c0-46540 13090-84360 40730-114900 26180-29090 61090-43630 104720-43630 39270 0 71270 13090 93090 39270 21810 26180 31990 63990 31990 111990v447980h197810V629090c0-46540 13090-84360 40730-114900 26180-29090 61090-43630 104720-43630 40720 0 71270 13090 93080 39270 21820 26180 32000 63990 32000 111990v447980h197810V584010c0-91640-23270-164360-71270-218170-48000-52360-114900-78550-200720-78550-58180 0-107620 13090-149810 39280-42180 26180-77080 63990-104720 113440h42180c-20360-49450-50900-87260-93080-113440-42180-26190-91630-39280-149820-39280-59630 0-110530 14550-152710 42180-42180 27640-74180 71270-98910 128000l42180 17450V307660H410160v762140zM2136610 1090160c50900 0 95990-8730 138170-29090 40720-18910 75630-45090 106180-80000 29090-34900 52360-77080 68350-126530 16010-49460 23280-104720 23280-165810s-7270-116360-23280-165810c-15990-49450-39260-91630-68350-126540-30550-34910-65460-62540-106180-81450-42180-18910-87270-27640-138170-27640-64000 0-117820 14550-162900 45090-45090 30540-81450 75630-106180 133810l34910 8730V307660h-197810v1047210h197810V902530l-34910 8730c24730 58180 61090 101810 106180 132360 45080 31990 98900 46540 162900 46540zm-45090-180350c-56720 0-103270-20370-136720-59640-34910-39270-52360-93080-52360-161440s17450-122180 52360-161450c33450-39270 80000-59630 136720-59630s100350 20360 132350 59630 48000 93090 48000 161450-16000 122170-48000 161440-75630 59640-132350 59640zM2826020 1090160c65450 0 120720-13090 165810-42180 45090-27630 80000-69810 104720-127990l-40720-17460v167270h191990V586910c0-94540-29090-167260-87270-221070-59630-52360-141080-78550-245800-78550-85820 0-155630 17460-212350 53820-56730 36360-96000 88720-120730 158530l178900 45090c11640-30540 29090-55260 53820-71260 23270-16000 55270-23280 94540-23280 49450 0 85810 11640 110540 34910 23270 24730 34910 61090 34910 109090v149810c0 58170-16000 103260-48000 135260-33450 32000-77090 48000-133810 48000-39280 0-68360-7270-88720-23270-21820-14550-32010-36360-32010-64000 0-27630 11640-49450 34910-65450 21820-14550 56730-23270 103270-24720l207990-5820V600000l-209440 5820c-106180 2910-187630 26180-244350 68360-56730 43630-84360 104720-84360 181810 0 71270 23270 127990 69810 170180 46540 42170 111990 63990 196350 63990zM3335080 485100h526520V307660h-526520v177440zm526520 407250h-122170c-27640 0-48000-5820-59640-18900-11630-13100-17450-33460-17450-62550V118570h-197810v727240c0 71270 17460 125080 52370 164350 33450 39270 88720 59640 164350 59640h180350V892350zM3983780 1069800h197800V307660h-197800zM3961960 118570c0 33460 11630 59640 33450 81460 21820 21810 50910 31990 87270 31990s66910-10180 88730-31990c21810-21820 32000-48000 32000-81460 0-33450-10190-61080-32000-82900-21820-20360-52370-30540-88730-30540s-65450 10180-87270 30540c-21820 21820-33450 49450-33450 82900zM4700830 1090160c82910 0 154170-18910 213800-58180 58180-37820 101820-93090 129460-167260l-177450-50910c-16000 36360-37820 64000-65460 81450-27630 17450-61080 26180-101800 26180-62550 0-112000-20360-145450-62540-33450-40730-50910-98910-50910-174540s17460-133810 50910-175990c33450-40720 80000-61090 141080-61090 52360 0 93080 14550 123630 45090 30550 30550 46550 74180 48000 130910l14540-29090h-456700v143990h626880c1450-10180 2910-21820 4360-33460v-36360c0-56720-8730-109080-24730-157080-16000-46540-40720-87270-71270-120720-30540-33450-68350-58180-111990-77080-45090-17460-94540-26190-151260-26190-56730 0-109090 8730-155630 27640-48000 18910-87270 46540-120720 81450-33460 34910-59640 77090-77090 126540-18910 49450-27630 104720-27630 165810 0 62540 8720 117810 27630 167260s45090 91630 78540 125080c33460 34910 72730 61090 120720 80000 46550 20360 98910 29090 158540 29090zM5182260 1069800h197800V646540c0-53810 16000-95990 46550-127990 30540-31990 69810-47990 120720-47990 46540 0 81450 14540 106170 42170 23280 29090 34910 71280 34910 126540v430530h197810V601460c0-100360-24730-177450-74180-232720-49450-53810-119270-81450-209440-81450-61090 0-113450 13090-157080 40730-45090 27630-80000 71270-106180 129450l40720 17450V307660h-197800v762140zM5973490 485100h526510V307660h-526510v177440zm526510 407250h-122170c-27640 0-48000-5820-59630-18900-11640-13100-17460-33460-17460-62550V118570h-197810v727240c0 71270 17460 125080 52370 164350 33440 39270 88720 59640 164350 59640h180350V892350z"/>
    </g>
  </g>
</svg>
