<svg xmlns="http://www.w3.org/2000/svg" xml:space="preserve" width="650" height="136" version="1.0" style="shape-rendering:geometricPrecision;text-rendering:geometricPrecision;image-rendering:optimizeQuality;fill-rule:evenodd;clip-rule:evenodd" viewBox="0 0 6500000 1360000">
  <defs>
    <style>
      .fil0{fill:#fff;fill-rule:nonzero}
    </style>
  </defs>
  <g id="Layer_x0020_1">
    <g id="_2161566764496">
      <path class="fil0" d="M500110 1092360v-92010c-75680-1480-143950-13350-204790-35610-60850-20780-114270-50460-157310-90530-43040-38580-77170-86070-100910-140980C11870 678320 0 617470 0 547730c0-69750 11870-132080 37100-186990 23740-54910 57870-102400 100910-140980 43040-38590 96460-68270 157310-90530 60840-20780 129110-32650 204790-34130V9030h185500v86070c75690 1480 143960 13350 204800 34130 60840 22260 114270 51940 157300 90530 43040 38580 77170 86070 100920 140980 23740 54910 35610 117240 35610 186990 0 69740-11870 130590-35610 185500-23750 54910-57880 102400-100920 140980-43030 40070-96460 69750-157300 90530-60840 22260-129110 34130-204800 35610v92010H500110zm2970-256730V259820c-48980 0-92010 5940-130600 19300-38580 13350-71230 32650-99420 57870-28200 25230-48980 56400-63820 90530-14840 35620-22260 75690-22260 120210s7420 84590 22260 118720c14840 35610 35620 65300 63820 90520 28190 25230 60840 44520 99420 57880 38590 13360 81620 20780 130600 20780zm179570 0c47480 0 90520-7420 130590-20780 38590-13360 71230-32650 99430-57880 26710-25220 47480-54910 62330-90520 14840-34130 22260-74200 22260-118720s-7420-84590-22260-120210c-14850-34130-35620-65300-62330-90530-28200-25220-60840-44520-99430-57870-40070-13360-83110-19300-130590-19300v575810zM1703650 1090880c57880 0 111300-8910 158790-29680 47490-19290 87560-46010 121690-81620 34130-35620 59360-78660 78650-129110 17810-50460 26720-106850 26720-169180s-8910-118730-26720-169180c-19290-50460-44520-93490-78650-129110-34130-35610-74200-63810-121690-83110-47490-19290-100910-28190-158790-28190s-111300 8900-158790 28190c-47490 19300-87560 47500-120210 83110-34120 35620-59360 78650-77170 129110-19290 50450-28190 106850-28190 169180s8900 118720 28190 169180c17810 50450 43050 93490 77170 129110 32650 35610 72720 62330 120210 81620 47490 20770 100910 29680 158790 29680zm0-157310c-65300 0-117240-22260-154340-68270-38580-44520-57870-105360-57870-184010s19290-139500 57870-185500c37100-44530 89040-66790 154340-66790 66780 0 118720 22260 155820 66790 37100 46000 56400 106850 56400 185500s-19300 139490-56400 184010c-37100 46010-89040 68270-155820 68270zM2666780 1090880c51940 0 97950-8910 140980-29680 43040-19290 78650-46010 109820-81620 29680-35620 53430-78660 69750-129110 16320-50460 25220-106850 25220-169180s-8900-118730-25220-169180c-16320-50460-40070-93490-69750-129110-31170-35610-66780-63810-109820-83110-43030-19290-89040-28190-140980-28190-68270 0-126140 16320-175120 48970-48970 32650-86070 78650-111300 139500l34140 4450V292470h-170670v1068500h170670V897950l-34140 4460c25230 60840 62330 106850 111300 139500 48980 32640 106850 48970 175120 48970zm-35620-157310c-66780 0-118720-22260-157310-68270-40060-44520-59350-105360-59350-184010s19290-139500 59350-185500c38590-44530 90530-66790 157310-66790 63820 0 115760 22260 152860 66790 37090 46000 54900 106850 54900 185500s-17810 139490-54900 184010c-37100 46010-89040 68270-152860 68270zM3165410 1070100h166210V482430l-25230-1480 221120 445200h126140l221120-445200h-23750v589150h166220V292470h-203320l-222600 446700-222600-446700h-203310zM4431280 1090880c66780 0 124660-14840 170660-44520 46000-28200 83110-72720 109820-132080l-37100-16330v172150h167690V578890c0-96460-28190-172150-86070-227050-57880-53430-139500-80140-243380-80140-84590 0-154340 17810-209250 53430-56390 37090-96460 90520-121690 160270l157310 40070c13350-37110 34130-63820 62330-83110 26710-17810 62320-26710 106840-26710 56400 0 97950 13350 126150 41550 26710 28200 40070 71230 40070 127630v151360c0 66790-17810 117240-54910 154350-37100 37090-89040 56390-152860 56390-44510 0-78650-8910-102390-28200-25230-17810-37100-43040-37100-77170s13350-59360 38580-77170 65300-28200 117240-29680l230020-8900V595210l-232990 8910c-102390 2970-182530 25230-237440 68260-54910 43040-83110 103890-83110 181050 0 72720 23740 129110 72720 172150 47490 43040 114270 65300 198860 65300zM5026370 1070100h170660V749550h339840v320550h172150V292470h-172150v302740h-339840V292470h-170660zM6087450 1070100h172140V446810h240410V292470h-652970v154340h240420z"/>
    </g>
  </g>
</svg>
