<svg xmlns="http://www.w3.org/2000/svg" xml:space="preserve" width="650" height="215" version="1.0" style="shape-rendering:geometricPrecision;text-rendering:geometricPrecision;image-rendering:optimizeQuality;fill-rule:evenodd;clip-rule:evenodd" viewBox="0 0 6500000 2150000">
  <defs>
    <style>
      .fil0{fill:#fff;fill-rule:nonzero}
    </style>
  </defs>
  <g id="Layer_x0020_1">
    <g id="_2161570199232">
      <path class="fil0" d="m271190 1689490 459140-663720H459130L0 1689490h271190zm761260 0h240270V24250H618510c-173650 0-311630 47570-411550 140350C104670 259760 54710 390590 54710 557120s49960 297360 152250 390140c99920 95160 235520 142740 409180 142740h416310v599490zm0-1444000v625650H630410c-107050 0-187930-28550-247410-83260-59470-54710-88010-133220-88010-230760 0-97530 28540-176040 88010-230760 59480-54710 140360-80870 247410-80870h402040zM2105340 1156610h-49950l335420 532880h249790l-425820-654210h-268830l-423440 654210h247400l335430-532880zm2380-209350-314010-504330h-245030l397270 620900h268830l397270-620900h-245030l-311630 504330h52330zM3305110 1720410c92780 0 176040-14270 249790-47570 73750-30930 137980-73750 190310-130850 52340-57090 92780-126080 121330-206960 28540-80880 42820-171280 42820-268820s-14280-187930-42820-268810c-28550-80890-68990-149880-121330-206970-52330-57100-116560-102300-190310-133220-73750-30930-157010-45210-249790-45210s-176040 14280-249790 45210c-73740 30920-137970 76120-190300 133220-54720 57090-95160 126080-123710 206970-28550 80880-42820 171270-42820 268810s14270 187940 42820 268820 68990 149870 123710 206960c52330 57100 116560 99920 190300 130850 73750 33300 157010 47570 249790 47570zm0-204580c-116570 0-209350-40450-275950-121330-68990-80880-102300-190310-102300-328290s33310-247410 102300-328290c66600-80880 159380-121320 275950-121320s206970 40440 275950 121320c69000 80880 102300 190310 102300 328290s-33300 247410-102300 328290c-68980 80880-159380 121330-275950 121330zM4180550 1689490h226010v-537640h606620v537640h223610V442930h-223610v504330h-606620V442930h-226010zM5876730 1689490h228380V647520h394890V442930H5481830v204590h394900z"/>
    </g>
  </g>
</svg>
