<svg xmlns="http://www.w3.org/2000/svg" xml:space="preserve" width="650" height="285" version="1.0" style="shape-rendering:geometricPrecision;text-rendering:geometricPrecision;image-rendering:optimizeQuality;fill-rule:evenodd;clip-rule:evenodd" viewBox="0 0 6500000 2850000">
  <defs>
    <style>
      .fil0{fill:#fff;fill-rule:nonzero}
    </style>
  </defs>
  <g id="Layer_x0020_1">
    <g id="_2161567493232">
      <path class="fil0" d="M0 2405500h258520V444750l762130 1534360h211520l765500-1541070v1967460h258530V55290h-335750l-792350 1601500L335740 55290H0zM2853820 2405500h248460V646200h-248460zM2796750 189580c0 50360 16780 94010 50360 124230 30210 33580 73860 50360 130940 50360 57070 0 100720-16780 134300-50360 30210-30220 47000-73870 47000-124230s-16790-94000-47000-127580c-33580-30220-77230-47000-134300-47000-57080 0-100730 16780-130940 47000-33580 33580-50360 77220-50360 127580zM3626040 2405500h248440v-987080c0-177960 47010-322320 144380-426400 94000-104090 221590-157810 379380-157810 151090 0 261880 47010 339100 144370 73870 97380 110800 241740 110800 433110v993810h248460V1364690c0-245090-57090-433110-171230-564050-114160-130940-275320-198090-486840-198090-147720 0-271950 33580-372670 100720-104090 70510-184670 174590-248450 312240l57070 26870V646200h-248440v1759300zM5392040 874500h1107960V646200H5392040v228300zm1107960 1302690h-282020c-90660 0-151090-20140-184660-57070-33580-36940-50360-104080-50360-204810V209730h-248460v1752580c0 151100 33580 265240 100740 335750 67140 70510 174580 107440 322310 107440h342450v-228310z"/>
    </g>
  </g>
</svg>
